<?xml version="1.0" encoding="UTF-8" standalone="no"?><svg xmlns="http://www.w3.org/2000/svg" xmlns:xlink="http://www.w3.org/1999/xlink" fill="#000000" height="84.9" id="Layer" preserveAspectRatio="xMidYMid meet" version="1.1" viewBox="0.0 0.0 500.0 84.9" width="500" x="0" xml:space="preserve" y="0" zoomAndPan="magnify"><g><g id="change1_1"><path d="M438.6339417,84.9404907H18.8958073C8.4599409,84.9404907,0,76.4805527,0,66.0446854v-47.14888 C0,8.4599409,8.4599409,0,18.8958073,0h419.7381287c10.4358826,0,18.895813,8.4599409,18.895813,18.8958073v47.14888 C457.5297546,76.4805527,449.0698242,84.9404907,438.6339417,84.9404907z" fill="#a6a6a6"/></g><g id="change2_1"><path d="M481.104187,84.9404907h-66.0446777V0h66.0446777C491.5400696,0,500,8.4599409,500,18.8958073v47.14888 C500,76.4805527,491.5400696,84.9404907,481.104187,84.9404907z" fill="#2c2824"/></g><g id="change1_2"><path d="M457.5036621,60.233654c-0.3967896,0-0.7935791-0.1514435-1.0964661-0.4543304L434.97052,38.3426285 c-0.6057739-0.6057701-0.6057739-1.5871201,0-2.1928902s1.5870972-0.6057701,2.1928711,0l20.340271,20.3402519 l20.3410034-20.3402519c0.6057739-0.6057701,1.5870972-0.6057701,2.1928711,0s0.6057739,1.5871201,0,2.1928902 l-21.437439,21.4366951C458.2972107,60.0822105,457.9004211,60.233654,457.5036621,60.233654z" fill="#a6a6a6"/></g></g></svg>