<?xml version="1.0" encoding="UTF-8" standalone="no"?><svg xmlns="http://www.w3.org/2000/svg" xmlns:xlink="http://www.w3.org/1999/xlink" data-name="Layer 1" fill="#737373" height="20" preserveAspectRatio="xMidYMid meet" version="1" viewBox="2.0 2.0 20.0 20.0" width="20" zoomAndPan="magnify"><g id="change1_1"><path d="M3,22H21a1.003,1.003,0,0,0,1-1V3a1.003,1.003,0,0,0-1-1H3A1.003,1.003,0,0,0,2,3V21A1.003,1.003,0,0,0,3,22Zm12.71-9.29a1.0079,1.0079,0,0,1-1.42,0L13,11.42V19a1,1,0,0,1-2,0V11.41l-1.29,1.3a1.00408,1.00408,0,0,1-1.42-1.42l3-3A1.02443,1.02443,0,0,1,12,8a1.22405,1.22405,0,0,1,.19.02.60262.60262,0,0,1,.19.06.914.914,0,0,1,.14.07.60677.60677,0,0,1,.1.07.546.546,0,0,1,.09.07l3,3A1.0079,1.0079,0,0,1,15.71,12.71ZM4,5A1.003,1.003,0,0,1,5,4H19a1.003,1.003,0,0,1,1,1V8a1,1,0,0,1-2,0V6H6V8A1,1,0,0,1,4,8Z"/></g></svg>