<?xml version="1.0" encoding="UTF-8" standalone="no"?><svg xmlns="http://www.w3.org/2000/svg" xmlns:xlink="http://www.w3.org/1999/xlink" fill="#000000" height="288.1" preserveAspectRatio="xMidYMid meet" version="1" viewBox="-0.7 -0.1 478.0 288.1" width="478" zoomAndPan="magnify"><g id="change1_1"><path d="M28.24,286.83c-2.45,0-4.93-0.31-7.38-0.93c-3.25-0.82-5.55-2.62-6.83-5.36c-0.42-0.88-0.89-1.76-1.34-2.61 c-0.84-1.57-1.71-3.19-2.26-4.91c-1.68-5.21-0.81-10.39,2.65-15.85c1.31-2.06,2.74-4.1,4.12-6.07c0.65-0.93,1.31-1.86,1.95-2.79 c0.21-0.3,0.4-0.58,0.29-0.97c-0.65-0.27-1.25-0.45-1.85-0.64c-1.69-0.52-3.45-1.06-4.99-2.04c-3.64-2.31-5.87-5.09-6.82-8.49 c-0.66-2.38-1.46-4.76-2.23-7.05c-0.67-2-1.37-4.08-1.97-6.14c-1.92-6.58-1.98-13.48-0.19-21.7c0.38-1.76,1.37-3.36,3.2-5.18 c5.87-5.83,12.46-10.93,19.58-15.16c2.82-1.67,6.01-2.93,9.5-3.74c8.88-2.05,17.15-5.58,23.36-8.42c1.72-0.79,3.54-1.44,5.3-2.07 c0.82-0.29,1.64-0.59,2.45-0.89l0.17-0.06l-0.14-0.11c-0.41-0.32-0.87-0.42-1.28-0.48c-0.14-0.02-0.28-0.04-0.43-0.05 c-0.35-0.04-0.72-0.08-1.05-0.2c-0.21-0.07-0.42-0.14-0.64-0.21l-0.22-0.07c-0.84-0.27-1.65-0.57-2.24-1.29l-0.21-0.05 c-1.39-0.11-2.82-0.22-4.16-0.67c-0.49-0.16-0.93-0.36-1.35-0.59c-0.81-0.45-1.44-0.87-1.6-1.78l-0.01-0.06l-0.87-0.26 c-1.98-0.61-3.7-1.27-4.61-3.24c-3.62-1.48-7.68-3.4-10.76-6.87c-0.42-0.47-0.82-0.97-1.18-1.48c-1.62-2.26-3.1-4.53-3.33-7.44 c-0.08-1-0.57-1.97-1.04-2.91c-0.14-0.27-0.27-0.54-0.4-0.81c-1.73-3.73-3.39-7.78-3.8-12.18c-0.17-1.77,0.12-3.53,0.4-5.23 c0.06-0.38,0.12-0.75,0.18-1.13c0.08-0.51,0.37-0.94,0.87-1.27c0.24-0.76,0.38-1.52,0.49-2.52c0.05-0.46,0.09-0.92,0.13-1.38 c0.08-0.9,0.16-1.83,0.33-2.73c-0.17-0.27-0.35-0.43-0.52-0.58c-0.21-0.19-0.41-0.37-0.56-0.6c-0.1-0.15-0.16-0.32-0.19-0.5 c-0.19-1.05-0.1-1.79,0.29-2.33c0.43-0.59,1.23-0.95,2.51-1.13l0.09-0.01l0-0.09c-0.03-1.21-0.54-2.28-1.02-3.31 c-0.11-0.24-0.23-0.48-0.34-0.73c-0.06-0.12-0.12-0.25-0.18-0.37c-0.29-0.58-0.57-1.14-0.11-1.74c0.23-0.31,0.5-0.45,0.84-0.45 c0.27,0,0.57,0.09,0.88,0.18c0.11,0.03,0.22,0.07,0.33,0.1c0.43,0.12,0.8,0.17,1.13,0.17c1.17,0,1.86-0.68,2.32-2.28 c0.63-2.19,0.69-4.47,0.75-6.67c0.02-0.7,0.04-1.4,0.07-2.1c0.02-0.42,0.02-0.83,0.03-1.25c0-0.46,0-0.92,0.03-1.37 c0.04-0.63,0.14-1.26,0.87-1.36c0.06-0.01,0.11-0.01,0.16-0.01c0.53,0,0.71,0.44,0.9,0.9l0.14,0.32l0.08-0.03 c0.22-0.07,0.43-0.15,0.63-0.24c0.68-0.31,1.18-0.73,1.52-1.3c0.32-1.38,0.27-2.79-0.16-4.46c-0.18-0.7-0.41-1.45-0.74-2.35 l-0.34-0.92c-0.48-1.32-1.02-2.64-1.53-3.92c-0.37-0.91-0.74-1.83-1.09-2.75c-0.43-1.12-0.49-1.98,0.64-2.52l0.07-0.03l-0.01-0.07 c-0.09-0.5-0.19-0.99-0.3-1.49c-0.32-1.51-0.64-2.98-0.54-4.48c-0.03-0.11-0.05-0.17-0.07-0.24c-0.05-0.16-0.1-0.33-0.2-0.47 c-0.29-0.41-0.4-0.74-0.34-1.03c0.05-0.24,0.24-0.45,0.55-0.63c0.19-0.11,0.37-0.17,0.52-0.17c0.38,0,0.61,0.37,0.86,0.77l0.12,0.19 c2.57,3.96,5.05,7.87,7.18,12.07c0.1,0.19,0.19,0.39,0.28,0.59c0.3,0.66,0.61,1.35,1.23,1.85l0.08,0.06l0.06-0.08 c0.55-0.74,1-1.58,1.4-2.58c0.16-0.39,0.29-0.8,0.42-1.2c0.22-0.7,0.42-1.41,0.61-2.12c0.12-0.44,0.24-0.88,0.37-1.32l0.02-0.07 l-0.05-0.04c-0.45-0.34-0.67-0.79-0.73-1.46c-0.02-0.19-0.02-0.39-0.02-0.59c0.01-2.65-0.26-5.32-0.52-7.9 c-0.14-1.4-0.28-2.8-0.38-4.2c-0.32-4.49,0.02-8.85,1-12.97c0.12-0.49,0.29-0.97,0.46-1.44c0.07-0.19,0.14-0.39,0.21-0.58 c0.18-0.54,0.46-0.79,0.9-0.82c0,0,0,0,0.01,0c0.4,0,0.55,0.23,0.73,0.5c0.07,0.11,0.14,0.22,0.22,0.31c1.05,0.2,1.17,0.93,1.31,1.7 c0.03,0.15,0.05,0.29,0.08,0.43c0.18,0.8,0.32,1.61,0.46,2.44c0.28,1.63,0.57,3.31,1.18,5.11l0.06,0.18l1.25-1.76 c1.08-1.53,2.16-3.02,3.36-4.37l0.06-0.07L57.27,41c-0.34-0.31-0.51-0.61-0.51-0.89c0-0.23,0.12-0.46,0.35-0.68 c0.08-0.07,0.17-0.15,0.27-0.22c3.19-2.24,5.76-5.18,8.25-8.02c0.46-0.53,0.92-1.05,1.38-1.57c6.14-6.9,13.81-12.83,23.47-18.12 c7.03-3.85,14.42-6.91,21.97-9.08c2.38-0.68,4.83-1.24,6.92-1.69c0.37-0.08,0.63-0.11,0.83-0.11c0.66,0,0.91,0.36,1.39,1.61 c0.34,0.12,0.61,0.16,0.89,0.19c0.27,0.03,0.54,0.05,0.81,0.06c0.13,0.01,0.27,0.01,0.4,0.01c0.14,0,0.28,0,0.41-0.01 c0.27-0.01,0.54-0.03,0.82-0.06l0.27-0.03l-0.31-0.22c-0.33-0.23-0.67-0.46-0.79-0.77c-0.08-0.22-0.06-0.45,0.08-0.73 c0.2-0.4,0.53-0.57,1.06-0.57c0.17,0,0.34,0.02,0.51,0.04c0.67,0.09,1.35,0.17,2.02,0.26c1.9,0.24,3.86,0.49,5.78,0.81 c2.18,0.37,4.34,0.55,6.41,0.55c2.67,0,5.31-0.31,7.84-0.92c0.1-0.03,0.21-0.06,0.31-0.09c0.2-0.06,0.4-0.12,0.59-0.13 c0.14,0,0.29-0.02,0.44-0.03c0.18-0.02,0.36-0.04,0.53-0.04c0.55,0,0.84,0.2,0.97,0.68c0.17,0.58-0.24,0.81-0.71,1.08 c-0.18,0.1-0.36,0.2-0.5,0.33l-0.1,0.09l0.11,0.07c0.26,0.17,0.39,0.33,0.39,0.48c0,0.17-0.17,0.34-0.5,0.53 c-1.55,0.88-3.3,1.65-5.36,2.34c-0.18,0.06-0.36,0.11-0.55,0.15c-0.19,0.05-0.38,0.1-0.57,0.16c-0.33,0.11-0.59,0.24-0.8,0.42 c-0.08,0.07-0.16,0.14-0.23,0.23l-0.1,0.12l0.15,0.04c1.11,0.27,2.21,0.57,3.31,0.87l0.13,0.04c2.11,0.57,4.03,1.1,5.86,1.65 c3.16,0.93,6.38,1.94,9.22,2.83c2.68,0.84,5.36,1.83,7.85,2.77c8.47,3.2,16.19,8.53,24.31,16.76c1.23,1.25,2.23,2.81,3.06,4.76 c2.04,4.81,3.48,9.79,4.29,14.81c0.38,2.34-0.16,4.59-0.67,6.76c-0.09,0.4-0.19,0.79-0.28,1.19c-0.18,0.82-0.85,1.19-1.55,1.57 l-1.19,2.18c0.43,1.76-0.21,3.28-0.83,4.75l-0.11,0.26c-0.09,0.22-0.19,0.45-0.27,0.67c-1.32,3.42-3.08,6.43-5.22,8.96 c-0.49,0.58-1.05,1.14-1.65,1.67c-0.81,0.71-1.34,1.09-1.86,1.09c-0.53,0-1.1-0.39-2.03-1.16c-0.1-0.01-0.16-0.01-0.21-0.01 c-0.02,0-0.04,0-0.06,0c-0.82,0-1.23-0.55-1.59-1.38c0,0-0.53-1.25-0.65-1.51c-0.26-0.6-0.62-0.9-1.06-0.9 c-0.28,0-0.6,0.13-0.94,0.4l-3.54,2.71c-1.16,1.46-2.07,3.08-2.94,4.64l-0.18,0.32c-0.31,0.56-0.63,1.13-0.96,1.68 c-0.37,0.62-0.74,1.23-1.3,1.23c-0.27,0-0.57-0.14-0.9-0.41l-0.05-0.04l-0.79,0.46c-0.32,1.65-0.37,1.97-1.12,2.13 c-0.27,0.06-0.62,0.09-1.09,0.14c-0.12,0.01-0.25,0.03-0.38,0.04c-0.24,0.03-0.48,0.06-0.72,0.06c-0.1,0-0.2-0.01-0.31-0.02 c-0.24-0.03-0.47-0.05-0.69-0.05c-1.17,0-2.16,0.47-3.02,1.43c-0.06,0.06-0.11,0.13-0.16,0.2c-0.13,0.19-0.25,0.35-0.48,0.38 c0,0-0.01,0-0.01,0c-0.4,0-0.55-0.31-0.68-0.58c-0.11-0.22-0.2-0.41-0.38-0.41h-0.03l-0.12,0.05c-0.15,0.1-0.28,0.23-0.41,0.35 c-0.22,0.22-0.43,0.43-0.74,0.43c-0.09,0-0.19-0.02-0.3-0.06c-0.57-0.2-0.78-0.7-1-1.23l-0.07-0.17c-0.5-1.18-1.16-1.84-2.01-2.04 L155,87.47c-0.62-0.14-1.11-0.26-1.55-0.26c-0.84,0-1.47,0.43-2.32,1.59c-1.08,1.48-2.29,3.48-1.99,5.82 c0.2,1.56-0.53,2.33-1.78,3.07c-0.47,0.28-0.94,0.41-1.44,0.41c-0.64,0-1.31-0.23-2.06-0.69c-2.17-1.34-3.97-3.24-5.85-6.15 c-0.29-0.45-0.59-0.91-0.89-1.36c-0.82-1.25-1.67-2.54-2.41-3.86c-0.38-0.69-0.82-1.01-1.37-1.01c-0.31,0-0.66,0.1-1.12,0.32 c-2.83,1.35-5.43,3.05-7.59,4.53c-0.43,0.29-0.84,0.61-1.25,0.93c-0.41,0.32-0.81,0.64-1.24,0.93c-3.97,2.72-7.17,6.58-9.78,11.78 c-0.1,0.2-0.19,0.4-0.27,0.6c-0.22,0.51-0.45,1.04-0.86,1.46c-2.12,2.15-3.07,4.79-3.84,8.1c-1.25,5.35-1.56,10.54-0.93,15.87 c0.31,2.59,1.04,5.12,1.82,7.79l0.28,0.95l0.12-0.11c3.74-3.42,7.5-6.14,11.33-8.87c3.15-2.24,6.23-4.45,9.14-6.93 c0.67-0.57,1.36-1.15,1.09-2.27c-0.13-0.52,0.07-0.98,0.58-1.33c4.53-3.09,8.92-6.52,13.16-9.84c4.39-3.43,8.93-6.98,13.63-10.15 c6.62-4.47,12.95-7.22,19.33-8.38c1.32-0.24,2.69-0.36,4.19-0.36c0.99,0,2.03,0.05,3.17,0.16c2.57,0.24,4.48,1.8,6.33,3.31 c0.33,0.27,0.65,0.53,0.98,0.79c2.21,1.74,4.02,4.11,5.88,7.69c0.27,0.51,0.53,1.03,0.79,1.55c1.31,2.57,2.66,5.22,4.55,7.49 l0.37,0.45c1.59,1.91,3.23,3.88,5.13,5.5c0.98,0.83,2.11,1.63,3.18,2.37c0.43,0.29,0.95,0.59,1.59,0.59c0.08,0,0.17,0,0.26-0.02 l0.38-0.04c1.19-0.13,1.63-0.18,1.87-1.89c0.09-0.63,0.17-1.26,0.25-1.89c0.29-2.24,0.59-4.56,1.21-6.8 c0.37-1.33,0.89-2.57,1.44-3.88c0.37-0.87,0.75-1.78,1.08-2.72l0.04-0.11l-0.11-0.02c-1.43-0.32-2.3-1.31-2.66-3.04 c-0.08-0.37-0.16-0.73-0.25-1.09c-0.22-0.93-0.44-1.89-0.52-2.88c-0.52-6.71,3.19-11.71,9.68-13.05c1.02-0.21,1.18-0.76,1.29-1.52 c0.61-3.96,1.32-7.56,2.19-11c0.08-0.34,0.17-0.67,0.26-1.01c0.08-0.29,0.16-0.59,0.25-0.88c0.72-2.47,1.54-4.24,2.66-5.75 c0.19-1.15,0.64-2.13,1.05-2.94c0.18-0.35,0.37-0.7,0.56-1.04c0.37-0.67,0.74-1.37,1.05-2.08l0.02-0.05l-0.04-0.05 c-0.95-1.4-1.03-1.51-0.29-2.13c0.12-0.1,0.25-0.2,0.4-0.32c2.68-2.09,5.72-3.34,9.04-3.71c0.45-0.05,0.96-0.1,1.47-0.1 c1.58,0,2.57,0.54,3.21,1.75l0.03,0.05l2-0.02l0.02-0.07c0.07-0.23,0.16-0.42,0.29-0.59c0.11-0.14,0.24-0.26,0.4-0.37 c0.18-0.12,0.36-0.2,0.57-0.28c0.2-0.07,0.42-0.12,0.64-0.18c3.33-0.76,7.72-1.64,12.18-1.64c0.92,0,1.83,0.04,2.71,0.11 c6.5,0.53,12.77,2.35,18.63,5.42c3.25,1.7,5.97,4.3,8.34,7.96c1.24,1.92,2.47,3.89,3.67,5.88c0.41,0.69,0.79,1.24,1.5,1.55 c3.57,1.57,6.73,4.16,9.64,7.93c0.14,0.18,0.27,0.37,0.38,0.53l0.17,0.24l0.07-0.02c0.73-0.19,1.12-0.65,1.47-1.05 c0.17-0.2,0.34-0.39,0.54-0.54c1.91-1.48,2.41-2.98,1.6-4.86c-0.21-0.48-0.19-1.09-0.17-1.67l0.01-0.18 c0.32-10.63,1.54-19.9,3.73-28.34c0.64-2.49,2.31-3.96,4.95-4.36c0.26-0.04,0.52-0.06,0.78-0.06c1.25,0,2.52,0.45,3.87,1.39 c2.73,1.89,5.26,4.22,7.52,6.91c1.74,2.07,4.09,4.72,6.93,6.93c0.82,0.64,1.65,0.96,2.45,0.96c1.14,0,2.19-0.66,3.03-1.92 c1.41-2.12,2.83-4.24,4.26-6.35c1.94-2.86,4.76-5.21,8.89-7.39c0.66-0.35,1.46-0.52,2.37-0.52c2.33,0,4.98,1.18,6.61,2.94 c0.52,0.56,0.94,1.22,1.34,1.86l0.3,0.46c3.21,4.93,5.13,10.51,6.99,15.91c0.31,0.9,0.62,1.8,0.94,2.7c0.52,1.47,1.1,2.93,1.67,4.35 c0.21,0.54,0.43,1.08,0.64,1.62c1.11,2.82,3.15,4.64,6.05,5.4c2.05,0.53,3.73,1.58,5.15,3.18c1.15,1.3,1.77,2.67,1.9,4.2 c0.17,2.04,0.94,3.92,2.4,5.92c2.09,2.87,4.21,5.99,5.06,9.88c0.44,2.02,1.53,3.87,2.58,5.67l0.36,0.62 c2.29,3.93,4.29,8.33,6.48,14.27c2.35,6.37,4.52,13.28,6.62,21.14c1.15,4.29,2.17,8.69,3.16,12.94c0.49,2.1,0.98,4.2,1.48,6.3 l0.35,1.42c0.55,2.26,1.12,4.6,1.51,6.95c0.69,4.17,0.46,8.41,0.25,12.51l-0.13,2.58c-0.15,2.93-0.3,5.97-0.56,8.94 c-0.18,2.11-0.33,4.22-0.47,6.33c-0.3,4.47-0.62,9.09-1.33,13.6c-0.66,4.17-1.69,8.33-2.68,12.35c-0.26,1.08-0.53,2.15-0.79,3.23 c-0.76,3.17-0.25,4.42,2.48,6.07c2.2,1.34,4.69,2,7.1,2.65l0.97,0.26c3.71,1.01,7.56,1.56,11.28,2.09c1.65,0.24,3.31,0.47,4.95,0.75 c2.55,0.43,5.05,1.17,7.48,1.88c1.04,0.31,2.08,0.62,3.13,0.9c2.19,0.59,4.15,1.6,6.19,3.18c1.68,1.3,3.55,2.37,5.36,3.4 c0.66,0.37,1.31,0.75,1.96,1.13c4.18,2.49,6.77,6.51,7.69,11.96c0.44,2.6-0.63,5-1.85,7.21c-0.76,1.38-2.47,2.18-4.69,2.21l-0.89,0 c-2.18,0-4.06-0.09-5.76-0.27c-3.72-0.39-7.51-0.51-11.18-0.63c-2.51-0.08-5.11-0.16-7.67-0.33c-4.74-0.31-9.56-0.41-14.23-0.51 c-1.37-0.03-2.74-0.06-4.11-0.09c-0.17,0-0.33-0.01-0.5-0.01c-2.23,0-4.5,0.36-6.62,0.74c-3.46,0.63-6.99,0.95-10.48,0.95 c-3.03,0-6.13-0.24-9.2-0.72c-0.72-0.11-1.46-0.17-2.18-0.23c-1-0.08-2.03-0.17-3.02-0.39c-0.39-0.09-0.78-0.13-1.18-0.13 c-1.34,0-2.59,0.49-3.79,0.97c-0.28,0.11-0.56,0.22-0.84,0.33c-0.54,0.2-1.08,0.41-1.62,0.62c-1.58,0.62-3.21,1.25-4.89,1.65 c-0.64,0.15-1.34,0.43-1.67,1.32c-1.35,3.68-3.94,6.36-6.29,8.49c-1.78,1.61-4.02,1.8-6.2,1.98l-0.45,0.04 c-4.65,0.4-9.25,0.72-13.58,1c-2.32,0.15-4.66,0.5-6.92,0.84c-1.7,0.25-3.45,0.51-5.18,0.69c-1.97,0.2-3.94,0.43-5.91,0.65 c-5.3,0.61-10.78,1.24-16.2,1.33c-0.74,0.01-1.48,0.02-2.21,0.02c-3.45,0-6.88-0.14-10.21-0.42c-1.37-0.11-2.76-0.15-4.1-0.18 c-2.02-0.05-4.1-0.1-6.14-0.42c-0.9-0.14-1.8-0.25-2.7-0.36c-1.75-0.21-3.56-0.44-5.3-0.87c-1.26-0.31-2.52-0.62-3.77-0.93 c-1.84-0.45-3.67-0.9-5.51-1.37c-1.34-0.34-2.75-0.87-4.45-1.66c-1.58-0.73-3.17-1.43-4.76-2.13c-1.25-0.55-2.5-1.1-3.75-1.67 c-0.35-0.16-0.72-0.23-1.2-0.23c-0.2,0-0.4,0.01-0.6,0.02l-0.35,0.02c-1.05,0.04-2.11,0.08-3.16,0.13 c-3.77,0.16-7.68,0.32-11.52,0.32c-1.31,0-2.63-0.02-3.95-0.06c-4.86-0.16-11.26-0.41-17.63-0.9c-5.78-0.44-11.16-0.9-16.45-1.41 c-6.78-0.65-13.67-1.38-20.33-2.08l-0.57-0.06c-4.4-0.46-8.82-0.5-13.34-0.5c0,0-3.08,0-3.08,0c-3.83,0-7.6,0.34-11.26,0.67 c-2.16,0.19-4.39,0.4-6.58,0.52c-1,0.06-2.01,0.13-3.01,0.19c-2.53,0.17-5.15,0.34-7.72,0.38l-0.65,0c-6.09,0-12.05-1.11-17.07-2.19 c-2.31-0.5-4.77-1.21-7.54-2.19c-4.33-1.52-8.78-1.88-14.14-1.94c-0.82-0.01-1.63-0.01-2.45-0.01c-2.04,0-4.07,0.02-6.11,0.05 c-2.03,0.02-4.07,0.05-6.1,0.05c-3.61,0-6.55-0.08-9.25-0.25c-2.76-0.18-5.47-0.7-8-1.22c-1.25-0.26-1.9-0.8-2.17-1.8l-0.03-0.12 l-0.11,0.06c-3.96,2.23-7.6,4.94-11.12,7.56c-0.7,0.52-1.41,1.05-2.11,1.57c-4.99,3.67-10.07,6.9-15.09,9.6 C38.81,285.39,33.48,286.83,28.24,286.83z" fill="#423e3a"/></g><g id="change1_2"><path d="M75.5,164.95c0.62,0.02,1.23,0.05,1.85,0.09c0.6,0.04,1.21,0.09,1.81,0.15c2.7,0.28,5.05,1.33,7.08,3.1 c1.38,1.21,2.84,2.36,4.02,3.73c0.83,0.96,1.66,1.07,2.69,0.81c0.85-0.21,1.66-0.57,2.5-0.78c0.78-0.19,1.71-0.35,2.04,0.63 c0.3,0.88-0.52,1.22-1.15,1.56c-0.28,0.15-0.58,0.29-0.88,0.36c-2.14,0.46-4.17,1.14-6.21,1.96c-1.89,0.75-3.87,1.35-5.73,2.24 c-2.3,1.11-4.41,2.46-6.39,4.11c-2.13,1.77-4.49,3.26-6.55,5.13c-2.3,2.09-4.35,4.41-6.37,6.78c-2.53,2.98-5.61,5.44-8.62,7.89 c-4.41,3.59-8.17,7.79-12.01,11.91c-5.44,5.83-9.9,12.39-13.73,19.36c-1.64,2.99-2.96,6.16-4.35,9.27 c-0.46,1.02-1.02,1.96-1.71,2.84c-3.48,4.44-6.66,9.1-9.57,13.93c-1.44,2.39-2.23,5.02-2.4,7.89c-0.15,2.54,0.69,4.66,1.85,6.77 c0.16,0.28,0.44,0.72,0.65,0.54c1.1-0.92,2.75,0.07,3.76-1.19c0.51-0.64,1.34-0.76,1.82-0.01c0.45,0.7,0.05,1.3-0.67,1.77 c-1.21,0.79-2.32,1.74-4.13,1.22c0.84,2.79,2.15,4.83,4.54,6.06c0.78,0.4,1.6,0.92,2.16-0.32c0.14-0.32,0.51-0.45,0.81-0.39 c2.21,0.38,3.74-1.06,5.46-1.99c0.35-0.19,0.62-0.5,0.97-0.69c0.52-0.27,1.08-0.36,1.5,0.2c0.42,0.55,0.21,1.08-0.22,1.5 c-1.13,1.1-2.38,2.04-3.86,2.75c2.43,0.35,4.81,0.33,7.19-0.16c4.51-0.93,8.58-2.89,12.54-5.14c6.11-3.47,11.63-7.83,17.33-11.91 c5.38-3.85,11.14-7.08,16.84-10.42c0.62-0.36,1.3-0.77,1.86,0.07c0.53,0.79,0.27,1.42-0.84,2.06c-2.13,1.24-4.26,2.47-6.39,3.71 c-0.27,0.16-0.59,0.27-0.51,0.85c3.36,0.96,6.87,1.5,10.4,1.55c7.56,0.1,15.13,0.01,22.69,0.04c5.38,0.02,10.59,0.99,15.71,2.65 c7.7,2.49,15.62,3.68,23.71,3.69c6.77,0.01,13.48-0.94,20.22-1.47c5.17-0.4,10.35-0.33,15.54-0.33c5.76,0,11.46,0.7,17.15,1.35 c7.83,0.89,15.69,1.52,23.54,2.21c7.3,0.64,14.6,1.21,21.92,1.36c6.13,0.13,12.26-0.16,18.38-0.44c0.13-0.01,0.26-0.13,0.54-0.28 c-0.49-1.12-0.77-2.32-1.49-3.39c-1.35-2.01-1.58-4.25-1.23-6.63c0.61-4.11,1.92-8.04,2.78-12.08c0.27-1.24,0.5-2.49,0.73-3.74 c0.15-0.82,0.34-1.7,1.42-1.49c0.98,0.2,1.08,1.04,0.88,1.91c-0.64,2.79-1.25,5.59-1.95,8.37c-0.73,2.93-1.38,5.88-1.75,8.89 c-0.2,1.56,0.06,3.08,1.06,4.27c0.98,1.17,1.3,2.7,2.45,3.76c1.47,1.35,3.01,2.43,4.99,3.05c3.02,0.95,5.73,2.68,8.83,3.52 c8.96,2.43,18.04,3.79,27.33,3.98c5.73,0.12,11.46,0.16,17.15-0.2c6.83-0.43,13.66-0.97,20.45-1.96c5.35-0.78,10.72-1.52,16.14-1.77 c2.05-0.1,4.1-0.38,6.15-0.4c2.93-0.02,4.96-1.55,6.63-3.69c1.51-1.93,2.74-4.04,3.95-6.18c1.38-2.44,1.62-4.79,0.7-7.31 c-1.13-3.12-2.72-5.94-5.65-7.77c-0.63-0.39-1.22-0.86-1.32,0.48c-0.05,0.63-0.81,0.67-1.36,0.74c-3.11,0.37-6.16,0.45-9.21-0.61 c-2.92-1.02-5.96-1.72-8.93-2.62c-0.76-0.23-1.35-0.24-2,0.25c-4.55,3.45-9.78,5.62-14.96,7.87c-3.87,1.68-7.45,3.89-11.18,5.83 c-0.35,0.18-0.7,0.37-1.05,0.56c-0.61,0.33-1.24,0.54-1.6-0.26c-0.3-0.67-0.05-1.27,0.59-1.63c2.22-1.25,4.43-2.53,6.7-3.69 c3.75-1.92,7.47-3.88,11.42-5.39c2.53-0.97,4.8-2.43,6.91-4.17c3.37-2.77,6.99-5.23,10.2-8.21c2.38-2.21,4.92-4.23,6.9-6.88 c1.81-2.42,2.95-5.07,3.58-7.98c0.17-0.78,0.32-1.57,0.55-2.33c0.2-0.66,0.32-1.55,1.32-1.31c0.85,0.21,0.99,0.89,0.77,1.71 c-0.39,1.46-0.66,2.95-1.09,4.4c-1.13,3.83-3.4,6.96-6.18,9.76c-2.75,2.77-5.67,5.37-8.63,7.91c-0.41,0.35-0.93,0.63-1.12,1.32 c2.35,1.35,5.09,1.51,7.59,2.41c0.36,0.13,0.57-0.05,0.83-0.26c3.48-2.83,7.21-2.02,10.8-0.47c4.57,1.97,7.03,5.84,8.41,10.44 c0.47,1.57,0.86,3.2,0.44,4.79c0.75,0.45,1.22,0.09,1.73-0.1c2.23-0.84,4.49-1.62,6.7-2.51c1.4-0.56,2.82-0.63,4.23-0.33 c6.45,1.38,12.96,1.61,19.51,1.1c1.74-0.14,3.47-0.46,5.19-0.75c6.5-1.1,13.04-0.62,19.56-0.4c7.81,0.26,15.61,0.63,23.42,0.95 c1.61,0.07,1.78-0.12,1.88-1.65c0.11-1.77-0.77-3.22-1.45-4.72c-0.3-0.65-0.71-1.25-0.72-2c0-0.33,0.08-0.64,0.38-0.82 c0.39-0.24,0.78-0.1,1.11,0.14c0.19,0.13,0.33,0.34,0.47,0.53c1.38,1.88,2.46,6.21,2.12,8.78c1.54,0.12,3.05,0.59,4.62,0.28 c0.89-0.18,1.43-0.5,1.42-1.73c-0.02-2.05-0.5-3.92-1.29-5.76c-0.44-1.02-0.86-2.06-1.27-3.09c-0.32-0.8,0.14-1.2,0.81-1.43 c0.68-0.23,1.16,0.17,1.27,0.74c0.35,1.75,1.38,3.21,1.97,4.85c0.13,0.36,0.17,0.8,0.82,0.88c0.13-0.76,0.13-1.49-0.1-2.25 c-1.29-4.24-3.4-7.86-7.46-10.05c-2.73-1.47-5.47-2.93-7.81-5.03c-0.62-0.56-1.52-0.84-2.32-1.17c-6.76-2.74-13.83-4.05-21.06-4.86 c-5.22-0.58-10.26-2.1-15.13-4.1c-1.53-0.63-2.82-1.72-4.11-2.88c-2.09,4.93-4.76,9.33-8.13,13.27c-2.64,3.09-5.88,5.57-9.14,7.99 c-0.06,0.05-0.14,0.07-0.21,0.11c-0.63,0.32-1.31,0.86-1.88,0.01c-0.52-0.76-0.07-1.33,0.57-1.81c0.89-0.66,1.74-1.39,2.65-2.02 c5.98-4.17,10.03-9.9,13.23-16.33c0.75-1.52,1.18-3.14,1.5-4.77c0.95-4.84,2.42-9.56,3.31-14.41c0.85-4.61,1.44-9.27,1.75-13.95 c0.54-8.18,1.12-16.35,1.65-24.53c0.28-4.39-0.33-8.7-1.33-12.97c-1.3-5.57-2.41-11.2-3.91-16.72c-2.16-7.98-4.19-16-6.99-23.8 c-1.97-5.47-3.93-10.91-6.83-15.98c-1.22-2.13-2.46-4.28-3.32-6.6c-0.11-0.3-0.34-0.56-0.4-0.87c-0.7-4.07-3.15-7.26-5.34-10.56 c-1.04-1.56-1.78-3.19-1.98-5.05c-0.36-3.3-2.16-5.33-5.32-6.3c-4.22-1.3-6.95-4.05-8.59-8.24c-0.77-1.96-1.45-3.95-2.12-5.95 c-0.67-1.99-1.32-3.99-2.02-5.97c-0.27-0.01-0.54-0.03-0.8-0.04c0.05,0.66,0.1,1.33,0.16,1.99c-0.02,0.17-0.03,0.34-0.05,0.52 c0.01,0.24,0.02,0.47,0.04,0.71c0.05,0.71,0.12,1.42-0.09,2.13c0.02,0.23,0.05,0.47,0.02,0.69c-0.01,0.11-0.04,0.22-0.09,0.33 c-0.05,0.1-0.12,0.21-0.22,0.3c-0.45,2.91-1.54,5.62-2.55,8.36c-0.28,0.76-0.51,1.56-1.56,1.45c-0.31-0.03-0.53-0.11-0.7-0.23 c-0.34-0.23-0.44-0.61-0.46-1.04c-0.01-0.21,0.01-0.44,0.02-0.67c-1.52,0.68-2.97,0.6-4.38-0.08c-0.2-0.1-0.4-0.2-0.6-0.32 c-0.88-0.53-1.78-1.03-2.61-1.63c-1.66-1.23-3.41-2.21-5.43-2.8c-1.86-0.54-3.41-1.9-5.41-2.24c-0.58-0.1-1.03-0.92-1.54-1.42 c-1,0.72-1.45,0.21-1.62-0.77c-0.26-1.42,0.27-2.83,0.2-4.05c-0.11-0.4-0.22-0.46-0.41-0.39c-2.39,0.88-4.28,0.46-6.18-1.49 c-2.27-2.32-4.8-4.39-6.89-6.91c-2.03-2.45-4.26-4.72-6.88-6.55c-1.94-1.36-3.78-1.36-5.28-0.17c-0.91,0.73-1.01,1.78-1.32,2.74 c-0.63,1.95-0.55,1.92,1.23,2.83c3.21,1.64,6.06,3.79,8.4,6.55c1.39,1.63,2.65,3.37,3.94,5.08c0.41,0.54,1.14,1.13,0.52,1.85 c-0.17,0.2-0.35,0.34-0.53,0.44c-0.56,0.29-1.17,0.14-1.71-0.49c-0.62,3.09-2.57,5.14-4.93,6.87c-0.34,0.25-0.68,0.49-1.04,0.73 c-0.84,0.57-1.84,0.95-2.37,1.91c0.47,1.16-0.28,1.89-1,2.54c-0.69,0.64-1.52,1.14-2.27,1.72c-8.42,6.44-13.81,14.75-15.62,25.28 c-0.08,0.46-0.18,0.93-0.35,1.38c-0.61,1.69-0.79,3.18,1.29,4.06c0.64,0.27,1.25,0.78,0.77,1.69c-0.49,0.93-1.34,1.33-2.18,0.85 c-1.51-0.87-1.79-0.2-2.14,1.15c-0.83,3.16-3.12,5.23-5.73,6.96c-4.06,2.69-7.73,5.78-10.87,9.54c-1.05,1.26-1.66,2.63-2.14,4.34 c0.82,0.25,1.72,0.24,2.63,0.15c1.12-0.11,2.2,0.13,3.3,0.37c1.09,0.24,1.42,0.97,1.49,1.88c0.07,0.93-0.65,1.53-1.39,1.74 c-1.82,0.53-3.69,0.94-5.55,0.02c-0.64-0.32-1.29-0.59-1.86-1.05c-0.13-0.1-0.25-0.12-0.36-0.1c-0.01,0.06-0.03,0.12-0.08,0.19 c-0.05,0.08-0.11,0.16-0.21,0.26c-0.02,0-0.04-0.01-0.06-0.01c0.06,5.01,3.07,7.92,7.26,9.88c4.08,1.91,8.42,1.87,12.83,1.64 c5.3-0.28,9.74-2.69,14.21-5.13c3.58-1.96,6.76-4.47,9.67-7.33c1.72-1.69,3.5-3.24,5.98-3.7c3.21-0.59,4.77,0.96,4.12,4.14 c-0.28,1.36-0.94,2.52-1.87,3.53c-2.95,3.16-6.22,6.04-10.01,8.01c-3.2,1.66-6.56,3.19-10.06,4.23c-0.75,0.22-1.65,0.51-2.34,0.3 c-1.76-0.53-2.6,0.45-3.57,1.6c-2.01,2.37-3.74,4.94-5.41,7.54c-1.29,2.01-2.65,3.95-4.47,5.55c-1.45,1.27-3.08,1.79-4.85,1.08 c-1.77-0.71-2.62-2.3-2.82-4.14c-0.17-1.58-0.09-3.16,0.36-4.73c0.86-3,2.18-5.78,4.11-8.32c-10.65-2.54-12.75-5.65-15.23-10.84 c-0.97,0.55-2.07,0.47-3.16,0.53c-2.06,0.11-4.1,0.34-6.14,0.83c-2.56,0.62-5.21,0.47-7.77-0.05c-5.03-1.02-10.07-1.18-15.18-0.88 c-4.21,0.25-8.45,0.13-12.63,0.62c-5.11,0.6-10.23,1.22-15.09,3.12c-2.95,1.16-6.13,1.02-9.19,1.01c-5.34-0.02-10.6,0.5-15.86,1.25 c-0.46,0.07-0.91,0.14-1.33,0.11c-0.56-0.03-1.04-0.23-1.36-0.82c-0.08-0.15-0.15-0.32-0.21-0.52c-0.65,0.05-1.3,0.11-1.95,0.16 c0.38,1.58-0.82,1.81-1.81,1.79c-1.55-0.03-2.92,0.31-4.35,0.92c-1.53,0.65-3.27,0.63-4.95,0.6c-2.62-0.05-4.98,0.5-7.05,2.29 c-2.31,2-5.21,2.61-8.16,2.97c-4.9,0.6-9.75,1.46-14.49,2.86c-0.59,0.17-1.16,0.41-1.78,0.63c0.37,0.94,1.25,1.13,1.88,1.5 c6.29,3.6,12.33,7.63,18.78,10.94c2.61,1.34,5.18,2.78,7.97,3.78c4.53,1.62,9.05,2.14,13.75,0.62c4.09-1.32,8.25-2.45,12.2-4.16 c2.83-1.22,5.76-1.26,8.69-0.86c3.39,0.46,6.78,0.93,10.11,1.74c1.98,0.48,2.32,1.25,1.43,3.01c-0.84,1.66-2.19,2.71-3.88,3.34 c-1.1,0.41-2.22,0.73-3.62,1.18c5.24,1.66,10.26,2.94,15.01,5.02c1.54,0.67,3,1.47,4.45,2.3c1.07,0.6,1.72,1.44,1.63,2.69 c-0.1,1.31-1.12,1.83-2.18,2.28c-1.78,0.76-3.63,0.62-5.4,0.19c-3.31-0.8-6.77-0.85-10.01-2.03c-0.35-0.13-0.78-0.02-1.42-0.02 c1.53,1.71,3.37,2.68,5,3.88c2.76,2.02,5.61,3.94,8.22,6.15c0.79,0.67,1.57,1.36,2.21,2.17c1.24,1.57,0.89,3.2-0.85,4.21 c-2.28,1.32-4.48,0.71-6.54-0.51c-3.35-1.98-6.64-4.07-9.95-6.11c-0.16,0.26-0.32,0.52-0.47,0.78c0.92,1.1,1.84,2.19,2.76,3.29 s1.84,2.19,2.74,3.3c0.8,0.98,1.54,2.03,2.28,3.06c0.81,1.13,1,2.41,0.24,3.57c-0.75,1.14-2.02,1.48-3.38,1.41 c-2.37-0.13-4.15-1.48-5.87-2.92c-0.67-0.56-1.26-1.21-1.91-1.8c-0.38-0.34-0.8-1.02-1.35-0.5c-0.51,0.48,0.14,0.99,0.35,1.45 c0.16,0.36,0.37,0.72,0.65,1c0.46,0.48,0.66,1.1,0.87,1.68c0.46,1.27,0.98,2.63,0.01,3.86c-1.02,1.29-2.42,0.84-3.75,0.55 c-1.02-0.22-1.97-0.61-2.84-1.18c-3.44-2.22-6.68-4.69-8.92-8.17c-1.39-2.17-3.21-3.27-5.72-3.68c-3.79-0.61-7.42-1.85-10.57-4.08 c-3.17-2.23-6.81-2.58-10.42-2.82c-11.76-0.77-23.55-1.58-35.1-3.89c-8.87-1.77-17.63-4.23-25.76-8.47 c-3.06-1.6-6.11-3.42-7.94-6.29c-2.54-3.99-4.01-8.42-3.4-13.37c0.9-7.24,4.2-13.26,8.96-18.61c0.05-0.06,0.12-0.11,0.18-0.15 c1.68-1.21,1.75-2.69,1.09-4.56c-3.34-9.52-2.28-18.98,0.57-28.39c0.47-1.55,1.19-2.95,2.44-4.03c0.49-0.42,0.84-0.93,1.11-1.53 c2.64-5.93,6.95-10.42,12.15-14.16c2.65-1.91,5.32-3.79,8.28-5.21c0.36-0.17,0.73-0.34,0.89-0.86c-2.95-2.22-5.91-1.21-8.87-0.03 c-0.14,0.06-0.24,0.21-0.36,0.3c-0.57,0.43-1.14,1.01-1.89,0.41c-0.55-0.44-0.26-1.57,0.72-2.21c2.82-1.83,5.86-2.32,9.11-1.22 c3.58,1.21,5.65,4.05,7.49,7.05c1.51,2.46,3.39,4.6,5.18,6.82c0.49,0.6,1.19,1.07,1.87,1.47c1.29,0.74,2.14,0.27,2.11-1.24 c-0.05-2.45,1-4.48,2.32-6.39c3-4.34,8.43-2.95,10.18,0.68c0.17,0.36,0.37,0.7,0.63,1.18c0.86-0.86,1.39-1.99,2.58-2.38 c1.17-0.38,2.38-0.34,3.55-0.25c1.04,0.08,1.99-0.69,3.03-0.24c0.24-0.14,0.49-0.28,0.73-0.42c0.79-3.06,2.68-5.54,4.32-8.15 c0.33-0.53,0.79-1.08,1.56-0.77c0.69,0.27,0.38,0.96,0.53,1.46c1.18-0.9,2.36-1.81,3.54-2.71c0.81-0.62,1.43-0.47,1.85,0.47 c0.22,0.5,0.43,1.01,0.65,1.51c0.36,0.83,0.82,1.54,1.89,1.43c0.24-0.4,0.35-1.1,0.8-1.1c2.16-0.01,2.89-1.8,3.89-3.12 c2.47-3.26,4.2-6.92,5.24-10.87c0.34-1.29,0.91-1.81,2.19-1.19c0.38-0.71,0.76-1.42,1.14-2.13c-0.75-0.84-0.53-1.86-0.26-2.72 c1.29-4.22,0.86-8.34-0.53-12.42c-1.23-3.6-2.11-7.33-4.03-10.67c-0.92-1.59-2.04-3.01-3.44-4.2c-5.14-4.41-10.47-8.58-16.46-11.76 c-3.28-1.75-6.79-3.07-10.37-4.15c-6-1.81-12.03-3.54-18.05-5.3c-0.69-0.2-1.44-0.33-2.02-0.71c-0.83-0.54-1.53-1.28-0.39-2.25 c0.07-0.08,0.14-0.15,0.22-0.22c0.23-0.19,0.49-0.31,0.76-0.4c0.18-0.06,0.37-0.11,0.56-0.16c0.19-0.05,0.38-0.1,0.56-0.16 c1.86-0.63,3.67-1.38,5.38-2.35c0.56-0.32,0.84-0.71,0.12-1.18c-7.33,2.17-14.66,0.86-21.99-0.03c-0.87-0.11-1.73-0.24-2.6-0.36 c-0.27,0.03-0.54,0.05-0.81,0.06c-0.27,0.01-0.54,0.01-0.81,0s-0.54-0.03-0.81-0.06c-0.27-0.03-0.54-0.08-0.8-0.13 c-1.19,1.2-2.85,0.8-4.25,1.13c-8.24,1.94-16,5.05-23.55,8.8c-7.43,3.69-14.12,8.45-20.44,13.78c-1.4,1.18-2.5,2.65-3.72,4 c-3.09,3.41-6.11,6.89-9.6,9.92c-0.85,0.73-1.66,1.52-2.93,1.26c-1.2,1.35-2.26,2.81-3.37,4.38c-0.37,0.52-0.74,1.05-1.13,1.6 c-0.93-2.71-1.11-5.16-1.64-7.54c-0.2-0.9-0.16-1.96-1.42-2.18c-0.62,3.25-1.42,6.47-1.64,9.81c-0.2,3.16,0.06,6.26,0.37,9.37 c0.27,2.67,0.77,5.31,0.69,8.01c-0.03,1.02-0.19,1.92-1.43,2.12c-0.33,1.14-0.62,2.3-0.98,3.43c-0.13,0.4-0.26,0.8-0.42,1.19 c-0.35,0.9-0.79,1.76-1.39,2.56c-0.01,0.6,0.4,1.45-0.33,1.7c-0.67,0.23-1.39-0.2-1.78-0.89c-1.12-2.01-2.21-4.03-3.35-6.03 c-1.49-2.62-3.01-5.22-4.83-7.63c-0.1,1.54,0.22,3.02,0.54,4.51c0.11,0.49,0.21,0.99,0.3,1.49c0.47,0.19,0.82,0.56,0.96,1.01 c1.36,4.21,3.72,8.05,4.4,12.51c0.17,1.12,0.21,2.21,0.05,3.31c-0.08,0.54-0.02,1.21-0.68,1.38c-0.65,0.17-0.92-0.49-1.3-0.86 c-0.11-0.11-0.17-0.27-0.25-0.4c-0.36,0.6-0.87,0.99-1.47,1.26c-0.2,0.09-0.41,0.17-0.62,0.23c-0.43,2.61,0.04,5.25-0.29,7.86 c-0.12,0.94-0.19,1.89-0.31,2.83c-0.36,2.92-1.64,4.96-4.99,5.36c0.31,1.13,0.67,2.16,0.88,3.22c0.36,1.82-0.15,2.9-1.86,3.28 c-1.07,0.24-1.29,0.56-1.1,1.55c0.11,0.58-0.22,1.08-0.88,1.22c-0.25,1.36-0.31,2.74-0.47,4.12c-0.09,0.82-0.22,1.64-0.45,2.45 c0.8,0.32,1.38,0.75,1.16,1.76c-0.2,0.93-0.39,1.87-0.51,2.81c-0.34,2.56-0.06,5.11,0.8,7.51c1.08,3.04,1.81,6.25,3.99,8.82 c0.61,0.71,0.91,1.8,0.78,2.69c-0.34,2.3,0.87,4.07,2.07,5.61c2.92,3.73,6.56,6.63,11.16,8.16c2.55,0.85,5.1,1.05,7.72,0.51 c0.39-0.08,0.76-0.23,1.14-0.31c0.68-0.14,1.44,0.03,1.52,0.69c0.07,0.59-0.06,1.38-1.02,1.65c-2.51,0.69-5.01,0.63-7.53,0.23 c-0.78-0.13-1.52-0.44-2.28-0.66c0.95,2.05,2.78,2.72,4.67,3.3c0.27,0.08,0.54,0.16,0.81,0.25c0.56-0.62,1.23-0.73,1.94-0.35 c4.28,2.26,8.49,1.08,12.69-0.23c2.94-0.91,5.89-1.81,8.9-2.46c0.63-0.14,1.26-0.21,1.89-0.14c0.69,0.08,0.91,0.6,0.94,1.19 c0.03,0.6-0.21,1.13-0.91,1.17c-5.14,0.3-9.81,2.59-14.81,3.48c-1.1,0.19-2.2,0.28-3.29,0.48c0.61,0.75,1.43,1.05,2.28,1.33 c0.28,0.09,0.57,0.18,0.85,0.27c0.9,0.31,1.93,0.1,2.74,0.72C68.32,165.13,71.9,164.85,75.5,164.95z M396.2,101.01 c0.74-0.23,1.24,0.15,1.45,0.86c1.21,3.94,2.51,7.87,2.44,11.41c0.07,2.26-0.15,3.83-0.65,5.36c-0.23,0.7-0.61,1.36-1.57,0.95 c-0.74-0.32-0.8-0.86-0.58-1.57c1.21-4.06,0.49-8.01-0.65-11.95c-0.35-1.22-0.69-2.45-1.01-3.68 C395.48,101.8,395.53,101.22,396.2,101.01z M392.14,123.48c0.58-1.11,1.26-2.16,1.48-3.45c0.1-0.56,0.58-0.92,1.26-0.77 c0.66,0.14,0.49,0.69,0.59,0.99c-0.05,1.69-0.8,2.98-1.62,4.22c-0.36,0.55-0.97,0.91-1.62,0.48 C391.62,124.57,391.88,123.97,392.14,123.48z M388.42,128.72c0.57-0.75,1.27-1.4,1.96-2.04c0.32-0.3,0.77-0.27,1.08,0.02 c0.21,0.2,0.4,0.55,0.4,0.83c0,0.82-1.8,2.42-2.63,2.42C388.42,129.94,387.96,129.33,388.42,128.72z M329.74,104.7 c-0.62,1.06-3.37,2.25-4.56,2.05c-0.52-0.09-0.89-0.39-1.06-0.83c-0.26-0.72-0.08-1.38,0.46-1.95c0.66-0.69,2.67-1.46,4.01-1.45 c0.55-0.03,1.19,0.03,1.54,0.67C330.46,103.77,330.01,104.25,329.74,104.7z M313.23,149.84c0.55-0.04,1.11-0.01,1.66-0.01 c3.81,0.09,7.28-1.32,10.81-2.48c0.6-0.2,1.16-0.51,1.76-0.71c0.57-0.19,1.1-0.12,1.43,0.49c0.4,0.74,0.02,1.23-0.59,1.56 c-1.82,0.98-3.8,1.59-5.78,2.13c-1.91,0.52-3.87,0.89-5.81,1.29c-1.28,0.26-2.53,0.01-3.76-0.32c-0.48-0.13-0.88-0.46-0.87-1 C312.09,150.08,312.64,149.88,313.23,149.84z M279.98,130.54c0.1,0.07,0.22,0.13,0.35,0.19c0.01,0.01,0.03,0.02,0.04,0.02 c0.06,0.03,0.12,0.07,0.18,0.11c0.15,0.1,0.25,0.22,0.21,0.4c-0.01,0.06-0.03,0.12-0.08,0.19c-0.05,0.08-0.11,0.16-0.21,0.26 c-0.02,0-0.04-0.01-0.06-0.01c-0.13-0.02-0.25-0.05-0.38-0.07C280.02,131.27,280,130.9,279.98,130.54z M326.43,132.18 c0.34-0.27,0.68-0.53,1.04-0.78c0.04,0.39,0.13,0.79,0.1,1.18c-0.13,2.21-0.81,2.77-3.03,2.52c-0.24-0.03-0.47-0.05-0.71-0.08 C324.51,133.89,325.42,132.99,326.43,132.18z M208.48,203.37c0.04,0.06,0.07,0.12,0.07,0.19c0,0.08-0.03,0.17-0.12,0.28 c-0.41,0.47-0.61,0.01-0.8-0.3c0.15-0.21,0.3-0.42,0.45-0.63C208.18,203.08,208.37,203.22,208.48,203.37z" fill="#423e3a"/></g><g id="change2_1"><path d="M192.46,139.35c4.48-0.65,8.97-1.25,13.47-1.54c0.04-0.17,0.07-0.24,0.06-0.31 c-0.78-5.7-0.46-11.15,3.49-15.8c0.36-0.43,0.24-0.72-0.06-1.22c-0.64-1.07-1.93-1.06-2.7-1.84c-4.18-4.2-7.96-8.69-10.38-14.19 c-2.14-4.87-5.26-8.81-10.23-11.17c-2.43-1.16-4.98-1.33-7.43-1.04c-3.54,0.42-6.96,1.52-10.28,2.96c-4.03,1.75-7.9,3.84-11.41,6.4 c-5.59,4.07-10.8,8.67-16.34,12.81c-2.58,1.93-4.74,4.54-8.36,5.34c1.48,1.13,2.7,2.13,4.14,2.8c10.68,5.01,18.4,12.95,23.36,23.6 c0.35,0.74,0.8,0.89,1.51,0.79c3.11-0.45,6.13-1.09,8.51-3.39c1.14-1.11,2.6-1.54,4.12-1.74c1.34-0.18,2.7-0.19,4.05-0.29 c1.5-0.11,2.96-0.33,4.42-0.83c1.93-0.65,3.99-1.12,6.05-0.32c0.65-0.05,1.3-0.11,1.95-0.16h0 C190.85,139.37,191.67,139.47,192.46,139.35z M200.68,120.85c0.32-0.45,0.73-0.85,1.37-0.94c0.63,0.1,0.91,0.52,0.88,1.15 c-0.02,0.51-0.43,0.83-0.7,1.22c-1.43,2.03-2.43,4.28-3.08,6.65c-0.58,2.09-0.82,4.2,0.27,6.26c0.29,0.54,0.56,1.32-0.18,1.69 c-0.86,0.43-1.57-0.07-1.94-0.87c-0.29-0.64-0.51-1.35-0.59-2.05C196.14,129.04,197.87,124.77,200.68,120.85z M347.61,60.58 c0.48-0.55,0.77-1.15,0.79-1.92c0.14-5.71,2.67-10.35,6.4-14.49c1.42-1.57,3.15-2.65,4.95-3.66c2.85-1.61,4.84-1.48,7.1,0.8 c1.85,1.86,3.28,3.97,3.15,6.9c-0.09,1.96,0.37,3.95,0.57,5.92c0.55,5.29-0.58,10.24-2.99,14.94c-1.52,0.68-2.97,0.6-4.38-0.07 c-0.2-0.1-0.4-0.2-0.6-0.32c-0.88-0.53-1.78-1.03-2.61-1.63c-1.66-1.23-3.41-2.21-5.43-2.8c-1.86-0.54-3.41-1.9-5.41-2.24 C348.57,61.9,348.12,61.07,347.61,60.58z M322.73,68.75c-0.87-0.41-1.49,0.02-2.16,0.53c-1.33,1.01-2.7,1.95-4.22,3.03 c-0.67-1.55-0.57-3.05-0.48-4.48c0.4-6.19,1.02-12.36,2.07-18.48c0.3-1.74,0.64-1.96,2.13-1.04c3.27,2,6.37,4.21,8.59,7.43 c0.8,1.17,1.61,2.34,2.42,3.5c-0.62,3.09-2.57,5.14-4.93,6.87c-0.34,0.25-0.68,0.49-1.04,0.73 C324.26,67.4,323.26,67.79,322.73,68.75z M221.63,103.9c0.68-1.47,1.48-2.86,2.36-4.2c0.88-1.34,1.84-2.63,2.84-3.89c0,0,0,0,0,0 c0.15-0.18,0.3-0.36,0.45-0.53c0.93,0.01,1.86,0,2.79,0.04c3.29,0.13,6.65,2.36,7.22,6.91c0.35,2.76-2.35,6.57-5.47,7.25 c-3.66,0.79-7.95-0.32-9.69-4.51C221.98,104.6,221.8,104.26,221.63,103.9z M227.26,95.28L227.26,95.28c-0.01,0-0.02,0-0.03,0 l0.08-0.01C227.28,95.27,227.27,95.27,227.26,95.28z M274.28,133.07c-1.45,0.04-2.85,0.33-4.25,0.64c-0.84,0.18-1.68,0.38-2.52,0.53 c-2.64,0.48-5.19,0.1-7.71-0.67c-1.47-2.19-0.68-4.05,0.88-5.77c1.95-2.15,4.5-3.49,7.27-3.64c4.08-0.22,7.9,2.61,6.55,7.51 C274.37,132.13,274.35,132.61,274.28,133.07z M291.63,154.89c0.72-2.96,2.04-5.65,4.18-7.91c0.65-0.69,1.34-1.08,2.26-1.13 c2.93-0.17,5.86-0.36,8.77-1.06c-3.03,3.33-5.43,6.99-7.81,10.68c-1.08,1.67-2.16,3.38-3.71,4.67c-0.75,0.62-1.58,1.43-2.77,0.83 c-1.06-0.54-1.26-1.53-1.47-2.55C290.85,157.16,291.36,156.02,291.63,154.89z M150.89,148.43c1.97-1.36,3.96-1.96,5.84-2.8 c0.83,1.68,0.84,1.73-0.61,1.97C154.49,147.87,152.92,148.53,150.89,148.43z" fill="#cb8e7e"/></g><g id="change3_1"><path d="M233.36,64.78c-1.83,4.19-2.69,8.64-3.52,13.1c-0.2,1.1-0.41,2.19-0.59,3.29c-0.18,1.17,0.58,1.74,1.47,2.2 c1.07,0.56,1.19-0.52,1.53-1c1.97-2.73,4.17-5.21,6.85-7.28c1.61-1.24,3.6-1.7,5.22-2.71c4.18-2.59,8.53-5.01,12.01-8.6 c0.28-0.29,0.55-0.59,0.88-0.8c0.51-0.33,1.07-0.31,1.55,0.09c0.57,0.48,0.31,0.95-0.01,1.47c-0.09,0.15-0.21,0.28-0.34,0.4 c-0.26,0.25-0.55,0.48-0.7,0.81c-0.07,0.15-0.11,0.32-0.1,0.52h0c1.15-0.08,2.19-0.53,3.23-0.96c0.35-0.14,0.69-0.28,1.04-0.41 c0.75-0.26,1.49-0.47,2.24-0.61c1.25-0.23,2.51-0.26,3.82-0.04c1.35-0.41,2.34-0.31,3.03,0.31c0.41,0.37,0.72,0.93,0.94,1.68 c0.52,1.79,0.1,3.48-0.4,5.15c-0.73,2.44-1.53,4.86-2.62,7.17c-2.07,4.4-3.93,8.91-5.21,13.59c-1.11,4.06-1.55,8.29-0.44,12.5 c0.08,0.31,0.19,0.6,0.73,0.86c0.43-1.67,0.29-3.37,0.57-5c0.58-3.34,1.71-6.46,3.09-9.52c0.24-0.52,0.56-1.18,1.11-1.15 c1.31,0.08,1.35-0.84,1.53-1.66c0.28-1.25,0.53-2.5,1.17-3.62c0.36-0.63,0.81-1.32,1.67-0.89c0.8,0.4,0.4,1.13,0.21,1.69 c-1.39,4.12-1.93,8.37-1.87,12.68c0.04,2.6,0.14,5.21,0.6,7.79c0.37,2.07,1.29,3.92,2.26,5.75c0.35,0.01,0.66,0.12,0.95,0.27 c0.86,0.46,1.54,1.35,2.64,1.27c0.07-0.77-0.09-1.5-0.31-2.21c-0.22-0.72-0.48-1.42-0.61-2.16c-0.82-4.9-0.94-9.82-0.81-14.76 c0.04-1.53,0.34-3,0.84-4.44c0.23-0.66,0.61-1.18,1.38-1c0.9,0.22,0.99,0.86,0.76,1.67c-1.07,3.81-0.62,7.71-0.68,11.58 c-0.05,3.03,1.54,4.85,3.9,6.2c1.3,0.74,2.64,1.49,4.19,1.66c0.23,0.03,0.48,0.06,0.69,0.16c0.56,0.25,0.88,0.7,0.8,1.33 c-0.09,0.71-0.64,0.9-1.22,0.86c-1.45-0.09-2.79-0.6-4.1-1.19c-0.11-0.05-0.21-0.1-0.32-0.16c-0.31-0.17-0.61-0.37-0.93-0.53 c-0.42-0.22-0.85-0.4-1.37-0.38c0.06,1.08,0.74,1.88,1.27,2.74c0.18,0.29,0.33,0.58,0.45,0.9c0,0,0.04,0.04,0.07,0.08 c0.02,0.03,0.05,0.06,0.05,0.06c0.1,0.12,0.19,0.23,0.29,0.35c0.93,0.83,2.26,1.49,2.68,2.53c0.39,0.98-0.75,2.13-1.11,3.24 c-0.09,0.29-0.08,0.61-0.12,0.92c0.39,0.02,0.66-0.14,0.88-0.36s0.39-0.5,0.6-0.72c2.71-2.85,5.77-5.31,9.12-7.3 c2.21-1.31,3.56-3.08,4.49-5.32c0.97-2.36,1.73-4.79,2.22-7.3c0.45-2.34,0.89-4.69,1.63-6.97c1.22-3.82,2.94-7.4,5.07-10.79 c0.6-0.95,0.94-1.78,0.13-2.82c-2.18-2.79-4.62-5.34-7.81-6.88c-2.02-0.98-3.28-2.45-4.29-4.27c-0.7-1.25-1.27-2.58-1.99-3.81 c-1.82-3.13-4.13-5.77-7.28-7.71c-2.68-1.65-5.62-2.64-8.52-3.7c-3.69-1.34-7.53-1.86-11.47-1.89c-4.32-0.03-8.58,0.41-12.78,1.4 c-0.13,0.03-0.26,0.06-0.39,0.09c-0.26,0.05-0.51,0.09-0.76,0.1c-0.62,0.02-1.19-0.15-1.69-0.75c0,0,0,0,0,0 c-0.62,0.01-1.24,0.01-1.86,0.02c-0.41,0.65-0.95,1.17-1.77,0.89c-3.73-1.26-6.8,0.39-9.83,2.21c-0.81,0.49-1.6,1.02-2.41,1.53 c-0.45,1.08-1.07,2.08-1.6,3.12c-0.47,0.92-0.88,1.87-1.04,2.92C233.61,62.75,233.86,63.65,233.36,64.78z M237.79,57.62 c0.74,0.47,0.37,1.06,0.02,1.63c-0.62,1.02-1.04,2.13-1.37,3.28c-0.19,0.65-0.54,1.15-1.32,1.15c-0.54-0.06-0.99-0.38-0.92-0.89 c0.23-1.74,0.69-3.43,1.89-4.79C236.53,57.48,237.18,57.23,237.79,57.62z M373.86,54.56c-0.27-0.01-0.54-0.03-0.8-0.04 c-0.42-0.58-0.27-1.14-0.05-1.8C373.8,53.21,373.89,53.86,373.86,54.56z M373.04,60.89c-0.05,0.1-0.12,0.21-0.22,0.3 c-0.03-0.47-0.17-0.96,0.28-1.32c0.02,0.23,0.05,0.47,0.02,0.69C373.12,60.68,373.09,60.79,373.04,60.89z M373.21,56.51 c-0.02,0.17-0.03,0.34-0.05,0.52C372.85,56.82,372.89,56.65,373.21,56.51z M4.04,223c-1.03-3.35-1.83-6.75-1.8-10.29 c0.04-3.51,0.59-6.97,1.15-10.42c0.27-1.67,1.25-3.02,2.44-4.29c4.71-5.03,10.3-9.02,15.79-13.08c3.78-2.8,8.2-4.61,12.82-5.65 c8.68-1.96,16.82-5.32,24.82-9.1c2.32-1.1,4.85-1.53,7.22-2.49c0.28-0.11,0.63-0.11,0.95-0.1c3.03,0.18,6.03-0.41,9.05-0.48 c5.05-0.12,8.53,2.59,11.63,6.07c0.58,0.65,0.58,1.22-0.45,1.59c-6.57,2.36-12.61,5.68-17.97,10.19c-1.14,0.96-2.21,1.99-3.34,3.02 c-0.59-0.79-0.28-1.55-0.51-2.2c-0.19-0.55-0.55-1.07-1.16-1.06c-0.62,0.01-0.99,0.54-1.07,1.12c-0.15,1.03-0.17,2.09,0.16,3.08 c0.43,1.31,0.06,2.29-0.92,3.2c-0.7,0.64-1.24,1.45-1.89,2.15c-0.63,0.67-1.14,0.85-1.92-0.05c-3.43-3.88-7.93-6.06-12.75-7.66 c-0.23-0.07-0.46-0.17-0.69-0.18c-0.75-0.03-1.22,0.4-1.39,1.07c-0.15,0.58,0.36,0.85,0.79,1.04c1.89,0.85,3.8,1.66,5.69,2.5 c1.68,0.74,3.24,1.69,4.69,2.83c0.45,0.35,0.83,0.72,1.15,1.19c1.17,1.69,1.18,2.31-0.32,3.71c-1.69,1.57-3.43,3.1-5.23,4.55 c-1.75,1.41-3.28,3.01-4.73,4.72c-2.22,2.61-4.78,4.9-6.98,7.54c-6.17,7.41-11.11,15.55-15.04,24.33c-0.59,1.31-1.17,2.63-1.88,3.87 c-0.83,1.44-1.39,1.56-2.9,0.96c-0.89-0.35-1.8-0.64-2.7-0.97c-4.53-1.65-7.72-4.48-9-9.36C6.71,230.51,5.21,226.8,4.04,223z M283.75,120.61c0.05,0.32-0.11,0.49-0.39,0.57C283.35,120.9,283.42,120.67,283.75,120.61z M312.14,144.22 c-0.07-0.08-0.14-0.17-0.21-0.25c0,0,0,0,0,0c0.1-0.84,0.23-1.61,0.96-2.13c0.1-0.07,0.22-0.14,0.35-0.21 c3.63-1.78,6.99-4.01,10.15-6.53c0.05-0.04,0.13-0.06,0.21-0.06c0.08-0.01,0.17-0.01,0.24-0.02c0.24,0.03,0.47,0.06,0.71,0.08 c2.21,0.24,2.89-0.32,3.03-2.52c0.02-0.39-0.07-0.79-0.1-1.18c0.67-1.41,2.08-1.63,3.34-1.98c1.12-0.31,1.61,0.34,1.23,1.51 c-0.4,1.25-1.25,2.27-2.14,3.12c-4.91,4.65-10.6,8.02-17.05,10.09C312.63,144.21,312.38,144.2,312.14,144.22z M311.93,143.97 c0.07,0.08,0.14,0.17,0.21,0.25c-0.22,0.24-0.44,0.45-0.75,0.13C311.57,144.23,311.75,144.1,311.93,143.97 C311.93,143.97,311.93,143.97,311.93,143.97z M256.98,66.56c0.03-0.06,0.07-0.11,0.11-0.15c0.12-0.14,0.27-0.21,0.49-0.14 C257.48,66.58,257.27,66.65,256.98,66.56z M278.02,113.36c-0.03-0.06-0.05-0.13-0.06-0.22c0.4-0.05,0.54,0.18,0.57,0.53 C278.31,113.62,278.12,113.54,278.02,113.36z" fill="#7b5146"/></g><g id="change4_1"><path d="M213.33,193.74c-0.16,0.26-0.32,0.52-0.47,0.78c-0.27-0.15-0.5-0.34-0.7-0.57c-0.2-0.23-0.38-0.5-0.54-0.8 C212.4,192.81,212.82,193.43,213.33,193.74z M283.73,120.59c0,0,0.01,0,0.01,0.01c0.01,0,0.01,0.01,0.01,0.01l0,0 c-0.33,0.05-0.41,0.28-0.39,0.57c-1.03,1.89-2.75,3.47-2.6,5.89c0.01,0.2-0.11,0.53-0.25,0.59c-0.63,0.26-0.94,0.58-1.05,0.93 c-0.04,0.12-0.05,0.24-0.05,0.36c0,0.02,0.01,0.04,0.01,0.05c0.03,0.48,0.3,1,0.56,1.53v0c0.02,0.37,0.04,0.73,0.06,1.1 c-0.49-0.01-1.14-0.03-1.25,0.46c-0.33,1.48-1.17,1.49-2.38,1.13c-0.17-0.05-0.34-0.08-0.51-0.1c-0.53-0.06-1.08-0.02-1.62-0.05 c0,0,0,0,0,0c0.07-0.46,0.09-0.94,0.21-1.39c1.35-4.9-2.47-7.73-6.55-7.51c-2.77,0.15-5.32,1.48-7.27,3.64 c-1.55,1.72-2.34,3.58-0.88,5.77c-8.67-1.17-17.33-0.33-25.99,0.08c-3.26,0.15-6.5,0.7-9.67,1.49c-1.25,0.31-1.86-0.09-2.53-1.06 c-3.72-5.32-4.53-11.24-3.75-17.52c0.5-4.04,1.21-8.02,3.13-11.67c0.18-0.35,0.43-0.66,0.65-0.99c0.17,0.35,0.35,0.7,0.5,1.06 c1.74,4.19,6.03,5.3,9.69,4.51c3.12-0.67,5.82-4.49,5.47-7.25c-0.58-4.55-3.93-6.77-7.22-6.91c-0.93-0.04-1.86-0.03-2.79-0.04 c0,0,0.01-0.01,0.01-0.01l-0.08,0.01c3.53-5.34,6.03-11.36,10.56-16.04c1.07-1.11,1.96-2.54,3.89-2.25 c0.32,0.05,0.74-0.26,1.06-0.48c4.46-3.05,8.91-6.11,13.36-9.18c0.16-0.11,0.31-0.24,0.45-0.37s0.29-0.27,0.43-0.4 c0.29,0.09,0.5,0.02,0.6-0.29c0,0,0.05,0.01,0.05,0.01h0c1.15-0.08,2.19-0.53,3.23-0.96c0.35-0.14,0.69-0.28,1.04-0.41 c0.75-0.26,1.49-0.47,2.24-0.61c1.25-0.23,2.51-0.26,3.82-0.04c0.03,0.59,0.22,1.24,0.71,1.45c1.37,0.59,1.25,1.7,1.16,2.82 c-0.05,0.63-0.16,1.26-0.26,1.89c-0.57,3.51-2.27,6.61-3.73,9.78c-2.29,4.94-4.19,9.99-4.83,15.42c-0.39,3.32-0.63,6.67,0.34,9.97 c0.45,1.55,1.41,2.67,2.74,3.48c0.98,0.59,1.37,0.3,1.27-0.98c-0.03-0.43-0.02-0.97,0.26-1.07c1.28-0.46,0.9-1.44,0.89-2.34 c-0.04-4.01,0.83-7.79,2.8-11.33c0.15,1.24,0.17,2.46,0.15,3.68c-0.08,3.6,0.06,7.18,0.88,10.69c0.35,1.47,0.85,2.91,1.87,4.08 c0.9,1.03,0.91,1.01,2.13-0.18c0.35,0.01,0.66,0.12,0.95,0.27c0.86,0.46,1.54,1.35,2.64,1.27c0,0,0,0,0,0c0,0,0.05,0,0.05,0 c0.01,0.09,0.03,0.16,0.06,0.22c0.1,0.18,0.29,0.26,0.51,0.31c1.33,0.94,1.72,1.17,2.11,0.63c0.13-0.18,0.26-0.45,0.42-0.8 c0.27-0.03,0.53-0.05,0.8-0.08c0,0,0,0,0,0c0,0,0.04,0.04,0.07,0.08c0.02,0.03,0.05,0.06,0.05,0.06c0.1,0.11,0.19,0.23,0.29,0.35 c0.93,0.83,2.26,1.49,2.68,2.53c0.39,0.98-0.75,2.13-1.11,3.24C283.75,119.96,283.77,120.29,283.73,120.59z M246.99,127.33 c-2.14-0.68-4.05-1.82-5.91-3.06c-1.87-1.24-3.08-2.92-3.77-5.05c-0.37-1.14-0.56-2.31-0.78-3.48c-0.11-0.57-0.41-0.82-1.09-0.88 c-0.77,0.17-0.93,0.83-0.89,1.6c0.11,2.62,0.88,5,2.6,7.03c2.45,2.88,5.67,4.55,9.13,5.86c0.77,0.29,1.66,0.6,2.01-0.44 C248.63,127.88,247.84,127.6,246.99,127.33z M252.52,99.89c0.89-0.03,1.25-0.54,1.2-1.45c0.01-0.64-0.41-0.95-1.03-0.98 c-0.97-0.05-1.82-0.41-2.67-0.85c-1.05-0.54-1.64-1.43-2.16-2.42c-0.36-0.68-0.96-1.14-1.75-0.75c-0.74,0.36-0.49,0.99-0.3,1.64 C246.5,97.43,250,99.98,252.52,99.89z M254.66,114.72c-0.02-0.61-0.41-1.24-0.9-1.52c-0.16-0.09-0.34-0.14-0.51-0.14 c-0.74,0.01-1.19,0.43-1.24,1.17c-0.06,0.88,0.83,1.73,1.67,1.61C254.3,115.75,254.67,115.39,254.66,114.72z M259.38,85.3 c-0.12-0.49-0.45-0.82-0.9-1.04c-1.72-0.84-3.52-1.46-5.41-1.78c-0.78-0.1-1.52,0.09-1.68,0.91c-0.15,0.76,0.58,1.04,1.18,1.24 c0.37,0.13,0.78,0.13,1.16,0.23c1.46,0.38,2.94,0.7,4.18,1.64c0.39,0.3,0.8,0.58,1.25,0.13C259.56,86.25,259.5,85.76,259.38,85.3z M273.29,117.32c-1.57-1.09-3.19-2.13-3.76-4.14c-0.12-0.43-0.43-0.65-1.04-0.71c-0.6,0.02-0.99,0.44-1.04,1.18 c-0.08,1.1,0.42,2.01,1.07,2.83c0.9,1.13,2.01,2.03,3.21,2.82c0.99,0.66,1.62,0.59,2.19-0.26 C274.51,118.18,273.89,117.74,273.29,117.32z M364.73,253.66c2.37,1.01,4.44,0,6.49-0.05C369.14,252.86,367.08,252.37,364.73,253.66 z M98.32,164.93c0.25,2,1.2,3.56,1.76,5.35c0.47,1.49,1.41,2.6,2.51,3.69c3.43,3.42,7.79,5.19,12.16,6.9 c4.66,1.83,9.55,2.97,14.39,4.24c6.32,1.65,12.7,2.94,19.21,3.57c7.37,0.71,14.75,1.37,22.16,1.52c2.41,0.05,4.65,0.77,6.86,1.82 c2.23,1.06,4.1,2.73,6.49,3.53c2.57,0.86,5.19,1.51,7.83,2.07c1.57,0.33,2.79,1.09,3.76,2.33c0.69,0.88,1.4,1.74,2.08,2.62 c2.43,3.14,5.44,5.56,9.06,7.19c0.46,0.21,0.97,0.65,1.53,0.1c-0.16-0.96-0.61-1.82-1.12-2.61c-1.55-2.41-3.17-4.77-4.76-7.15 c-0.49-0.73-1.13-1.39-1.45-2.18c-0.3-0.75-0.68-1.69,0.22-2.4c0.92-0.73,2.14-0.71,3.02,0.11c1.52,1.4,3.02,2.83,4.52,4.26 c1.55,1.49,3.06,3.03,4.65,4.47c1.12,1.01,2.31,2,3.88,2.23c0.53,0.08,1.18,0.23,1.52-0.36c0.26-0.46-0.02-0.94-0.32-1.32 c-1.03-1.31-2.06-2.62-3.12-3.9c-2.13-2.58-4.28-5.13-6.42-7.7c-0.93-1.12-0.32-2.07,0.32-3.02c0.69-1.03,1.54-0.54,2.34-0.22 c0.8,0.33,1.58,0.7,2.33,1.17c3.37,2.12,6.78,4.17,10.18,6.25c1.18,0.72,2.43,1.19,3.82,1.18c0.48-0.01,0.96-0.21,1.07-0.77 c0.09-0.43-0.15-0.73-0.49-1c-1.51-1.16-2.97-2.39-4.51-3.51c-3.47-2.54-6.98-5.02-10.46-7.55c-1.03-0.75-1.97-1.62-2.76-2.62 c-0.39-0.49-0.82-1.05-0.43-1.73c0.33-0.59,0.94-0.51,1.49-0.48c0.87,0.05,1.75,0.1,2.61,0.25c4.39,0.79,8.77,1.63,13.16,2.41 c1.38,0.24,2.79,0.54,4.2-0.47c-0.8-0.7-1.58-1.19-2.47-1.58c-3.05-1.37-6.18-2.53-9.36-3.51c-4.93-1.5-9.78-3.37-15-3.73 c-0.74-0.05-1.24-0.39-1.32-1.11c-0.08-0.73,0.38-1.18,1.04-1.41c1.46-0.52,2.99-0.41,4.5-0.48c2.4-0.11,4.77-0.34,7-1.31 c0.87-0.38,1.74-0.72,2.23-1.95c-3.43-0.55-6.69-1.07-9.96-1.57c-2.71-0.42-5.21-0.09-7.66,1c-4.23,1.88-8.7,3.06-13.12,4.37 c-0.61,0.18-1.21,0.5-1.82,0.52c-4.07,0.15-8.12,0.02-11.98-1.49c-4.52-1.77-8.72-4.2-12.98-6.48c-5.39-2.89-10.36-6.5-15.76-9.4 c-4.81-2.59-9.73-4.77-15.33-4.81c-1.67-0.01-3.34,0.12-5.01,0.12c-1.15,0-1.46-0.7-0.88-1.69c0.34-0.58,0.86-0.65,1.43-0.66 c3.58-0.08,7.16-0.27,10.7,0.67c1.86,0.49,3.63,1.18,5.42,1.84c0.44,0.16,0.79,0.44,1.3,0.03c3.95-3.19,8.51-5.26,13.24-7.12 c-1.12-2.77-3.11-4.94-4.94-7.21c-3.4-4.2-7.68-7.32-12.43-9.83c-2.23-1.18-4.42-2.41-6.62-3.61c-0.87,0.95-1.59,1.92-2.56,2.64 c-4.79,3.56-9.61,7.09-14.35,10.71c-4.95,3.79-9.61,7.89-12.8,13.36C99.34,154.27,97.62,159.24,98.32,164.93z M208.23,136.8 c0.12,0.69,0.43,0.94,1.08,0.95c3.65,0.05,7.3,0.09,10.82-1.99c-2.81-3.62-4.05-7.67-4.65-11.98c-0.08-0.57,0.11-1.57-0.62-1.61 c-0.94-0.05-2.03-0.44-2.9,0.42c-1.36,1.34-2.51,2.81-3.21,4.63C207.55,130.37,207.65,133.56,208.23,136.8z M220.68,100.77 c2.88-4.4,5.78-8.79,8.61-13.22c1.05-1.64,0.73-2.34-1.12-2.84c-0.38-0.1-0.79-0.12-1.18-0.14c-5.14-0.18-10.46,5.99-8.96,11.31 c0.52,1.84,1.11,3.64,1.81,5.49C220.37,101.34,220.51,101.03,220.68,100.77z M208.08,202.92c-0.1-0.18-0.21-0.35-0.34-0.51 c-0.37-0.48-0.84-0.86-1.44-1.14c0.35,0.82,0.58,1.69,1.32,2.28C207.78,203.34,207.93,203.13,208.08,202.92 C208.08,202.92,208.08,202.92,208.08,202.92z M227.29,95.28c0,0,0.01-0.01,0.01-0.01c-0.02,0-0.03,0.01-0.04,0.01 c-0.1,0.01-0.18,0.05-0.23,0.1c-0.06,0.05-0.1,0.11-0.12,0.18c-0.03,0.08-0.05,0.16-0.06,0.26 C226.99,95.63,227.14,95.45,227.29,95.28z M280.15,109.77c0.06,1.08,0.74,1.88,1.27,2.74c0.18,0.29,0.33,0.58,0.45,0.9c0,0,0,0,0,0 c-0.27,0.02-0.53,0.05-0.8,0.08c-0.62-1.44-1.52-2.78-1.58-4.47C279.91,109.18,280.02,109.49,280.15,109.77z" fill="#e8a998"/></g><g id="change5_1"><path d="M5.69,236.2c1.06,3.83,3.6,6.48,6.86,8.55c2.1,1.33,4.51,1.83,6.8,2.62c0.11,0.38-0.1,0.63-0.28,0.89 c-2.03,2.95-4.16,5.84-6.07,8.86c-3.11,4.91-4.52,10.17-2.66,15.93c0.86,2.67,2.42,5.01,3.61,7.54c1.38,2.95,3.82,4.63,6.9,5.41 c8.22,2.07,15.97,0.58,23.31-3.36c5.26-2.83,10.28-6.06,15.1-9.61c4.29-3.16,8.49-6.45,13.23-9.12c0.32,1.17,1.13,1.64,2.25,1.87 c2.65,0.55,5.31,1.05,8.01,1.22c7.97,0.51,15.94,0.08,23.91,0.17c4.79,0.05,9.54,0.32,14.11,1.93c2.48,0.87,4.99,1.64,7.56,2.19 c5.85,1.26,11.74,2.27,17.74,2.19c3.58-0.05,7.16-0.36,10.73-0.57c5.95-0.35,11.86-1.2,17.84-1.2c5.48,0.01,10.95-0.07,16.41,0.5 c6.97,0.73,13.93,1.47,20.9,2.14c5.48,0.53,10.96,0.99,16.45,1.41c5.87,0.45,11.75,0.7,17.64,0.9c6.22,0.21,12.42-0.15,18.63-0.39 c0.71-0.03,1.4-0.14,2.11,0.18c2.83,1.29,5.69,2.49,8.51,3.8c1.45,0.67,2.92,1.27,4.46,1.67c3.09,0.79,6.19,1.53,9.28,2.3 c2.64,0.66,5.35,0.82,8.02,1.23c3.41,0.53,6.84,0.32,10.25,0.6c4.13,0.34,8.29,0.47,12.43,0.4c7.41-0.13,14.76-1.24,22.12-1.99 c4.04-0.41,8.03-1.26,12.1-1.53c4.53-0.3,9.06-0.61,13.58-1c2.36-0.21,4.79-0.3,6.71-2.05c2.68-2.43,5.05-5.07,6.32-8.53 c0.29-0.79,0.88-1.09,1.6-1.26c2.26-0.53,4.36-1.47,6.53-2.27c1.83-0.68,3.64-1.64,5.76-1.16c1.71,0.39,3.49,0.36,5.21,0.62 c6.59,1.02,13.14,0.96,19.71-0.23c2.34-0.42,4.74-0.79,7.1-0.73c6.11,0.15,12.23,0.19,18.33,0.6c6.27,0.42,12.57,0.3,18.84,0.96 c2.21,0.23,4.44,0.28,6.66,0.26c1.9-0.02,3.88-0.63,4.78-2.26c1.21-2.19,2.31-4.61,1.86-7.28c-0.86-5.1-3.2-9.34-7.74-12.03 c-2.46-1.47-5.04-2.77-7.31-4.52c-1.89-1.47-3.84-2.55-6.22-3.2c-3.53-0.96-6.99-2.18-10.62-2.78c-5.42-0.91-10.9-1.39-16.23-2.84 c-2.77-0.75-5.57-1.39-8.05-2.9c-2.72-1.65-3.17-2.87-2.43-5.96c1.24-5.17,2.63-10.31,3.47-15.58c1.05-6.61,1.22-13.29,1.8-19.94 c0.31-3.56,0.46-7.14,0.65-10.72c0.23-4.45,0.52-8.89-0.21-13.34c-0.47-2.83-1.19-5.59-1.86-8.37c-1.55-6.41-2.94-12.87-4.65-19.24 c-1.91-7.14-4.06-14.2-6.63-21.15c-1.83-4.94-3.85-9.74-6.49-14.29c-1.16-2-2.45-4.02-2.93-6.25c-0.83-3.8-2.87-6.89-5.07-9.91 c-1.31-1.79-2.19-3.67-2.38-5.87c-0.14-1.65-0.83-3.02-1.92-4.26c-1.42-1.61-3.13-2.67-5.2-3.21c-2.9-0.76-4.89-2.55-5.98-5.34 c-0.78-1.98-1.61-3.95-2.31-5.96c-2.24-6.38-4.19-12.88-7.93-18.63c-0.52-0.8-1-1.63-1.65-2.33c-2.34-2.53-6.6-3.75-9.09-2.43 c-3.48,1.84-6.67,4.09-8.93,7.42c-1.43,2.11-2.85,4.23-4.26,6.35c-1.42,2.13-3.38,2.45-5.33,0.94c-2.6-2.02-4.81-4.41-6.91-6.91 c-2.22-2.64-4.71-4.97-7.54-6.93c-1.41-0.97-2.98-1.61-4.72-1.35c-2.59,0.4-4.35,1.78-5.04,4.43c-2.41,9.3-3.44,18.79-3.73,28.37 c-0.02,0.63-0.07,1.34,0.17,1.9c0.9,2.09,0.02,3.52-1.57,4.74c-0.61,0.47-0.91,1.3-1.97,1.58c-0.13-0.19-0.31-0.46-0.51-0.71 c-2.62-3.39-5.71-6.22-9.68-7.96c-0.7-0.31-1.07-0.88-1.45-1.51c-1.19-1.98-2.41-3.94-3.67-5.88c-2.15-3.33-4.79-6.11-8.37-7.99 c-5.87-3.08-12.08-4.9-18.67-5.44c-5.06-0.41-10.01,0.41-14.92,1.53c-0.22,0.05-0.44,0.11-0.65,0.18c-0.2,0.07-0.4,0.16-0.57,0.27 c-0.01,0.01-0.02,0.01-0.03,0.02c-0.16,0.11-0.31,0.23-0.43,0.39c-0.13,0.17-0.23,0.37-0.3,0.62c0,0,0,0,0,0c0,0,0,0,0,0 c0.49,0.6,1.07,0.77,1.69,0.75c0.25-0.01,0.5-0.05,0.76-0.1c0.13-0.03,0.26-0.06,0.39-0.09c4.2-0.99,8.45-1.43,12.78-1.4 c3.94,0.03,7.78,0.55,11.47,1.89c2.91,1.06,5.84,2.05,8.52,3.7c3.15,1.94,5.45,4.58,7.28,7.71c0.72,1.24,1.3,2.56,1.99,3.81 c1.02,1.83,2.27,3.3,4.29,4.27c3.19,1.54,5.63,4.09,7.81,6.88c0.81,1.03,0.46,1.87-0.13,2.82c-2.13,3.39-3.84,6.97-5.07,10.79 c-0.73,2.28-1.18,4.63-1.63,6.97c-0.48,2.51-1.25,4.94-2.22,7.3c-0.92,2.23-2.28,4-4.49,5.32c-3.35,1.99-6.41,4.45-9.12,7.3 c-0.21,0.22-0.38,0.5-0.6,0.72s-0.48,0.38-0.88,0.36c0,0,0.01,0,0.01,0.01l0.01,0.01c0,0,0,0,0,0l0,0c0.05,0.32-0.11,0.49-0.39,0.57 c-1.03,1.89-2.75,3.47-2.6,5.89c0.01,0.2-0.11,0.53-0.25,0.59c-0.63,0.26-0.94,0.58-1.05,0.93c-0.04,0.12-0.05,0.24-0.05,0.36 c0,0.02,0.01,0.04,0.01,0.05c0.03,0.48,0.3,1,0.56,1.53c0.1,0.07,0.22,0.13,0.35,0.19c0.01,0.01,0.03,0.02,0.04,0.02 c0.06,0.03,0.12,0.07,0.18,0.11c0.15,0.1,0.25,0.22,0.21,0.4c0.11-0.03,0.23-0.01,0.36,0.1c0.57,0.46,1.22,0.74,1.86,1.05 c1.86,0.91,3.72,0.5,5.55-0.02c0.74-0.21,1.45-0.81,1.39-1.74c-0.06-0.91-0.4-1.64-1.49-1.88c-1.1-0.24-2.17-0.48-3.3-0.37 c-0.91,0.09-1.81,0.1-2.63-0.15c0.48-1.71,1.09-3.07,2.14-4.34c3.13-3.76,6.81-6.85,10.87-9.54c2.62-1.73,4.9-3.8,5.73-6.96 c0.35-1.34,0.63-2.02,2.14-1.15c0.84,0.49,1.69,0.08,2.18-0.85c0.48-0.91-0.13-1.42-0.77-1.69c-2.08-0.87-1.9-2.37-1.29-4.06 c0.16-0.44,0.27-0.91,0.35-1.38c1.81-10.52,7.2-18.83,15.62-25.28c0.75-0.58,1.57-1.08,2.27-1.72c0.71-0.66,1.47-1.38,1-2.54 c-0.87-0.41-1.49,0.02-2.16,0.53c-1.33,1.01-2.7,1.95-4.22,3.03c-0.67-1.55-0.57-3.05-0.48-4.48c0.4-6.19,1.02-12.36,2.07-18.48 c0.3-1.74,0.64-1.96,2.13-1.04c3.27,2,6.37,4.21,8.59,7.43c0.8,1.17,1.61,2.34,2.42,3.5c0.55,0.63,1.16,0.79,1.71,0.49 c0.19-0.1,0.36-0.24,0.53-0.44c0.62-0.72-0.11-1.31-0.52-1.85c-1.29-1.71-2.56-3.45-3.94-5.08c-2.34-2.76-5.19-4.9-8.4-6.55 c-1.77-0.91-1.85-0.88-1.23-2.83c0.31-0.95,0.41-2.01,1.32-2.74c1.49-1.2,3.34-1.19,5.28,0.17c2.63,1.83,4.85,4.1,6.88,6.55 c2.09,2.52,4.62,4.59,6.89,6.91c1.9,1.95,3.79,2.37,6.18,1.49c0.19-0.07,0.3-0.02,0.41,0.39c0.08,1.22-0.45,2.63-0.2,4.05 c0.18,0.98,0.62,1.49,1.62,0.77c0.48-0.55,0.77-1.15,0.79-1.92c0.14-5.71,2.67-10.35,6.4-14.49c1.42-1.57,3.15-2.65,4.95-3.66 c2.85-1.61,4.84-1.48,7.1,0.8c1.85,1.86,3.28,3.97,3.15,6.9c-0.09,1.96,0.37,3.95,0.57,5.92c0.55,5.29-0.58,10.24-2.99,14.94 c0,0,0,0,0,0c-0.02,0.23-0.03,0.45-0.02,0.67c0.02,0.43,0.12,0.8,0.46,1.04c0.17,0.12,0.4,0.2,0.7,0.23 c1.05,0.11,1.28-0.69,1.56-1.45c1.01-2.74,2.1-5.45,2.55-8.36c-0.03-0.47-0.17-0.96,0.28-1.32c0.21-0.71,0.15-1.42,0.09-2.13 c-0.02-0.24-0.04-0.47-0.04-0.71c-0.31-0.2-0.27-0.37,0.05-0.52c-0.05-0.66-0.1-1.33-0.16-1.99c-0.42-0.58-0.27-1.14-0.05-1.8 c0.79,0.49,0.89,1.14,0.85,1.84c0.71,1.98,1.36,3.98,2.02,5.97c0.67,1.99,1.35,3.98,2.12,5.95c1.64,4.2,4.37,6.94,8.59,8.24 c3.16,0.97,4.96,3.01,5.32,6.3c0.2,1.86,0.94,3.48,1.98,5.05c2.2,3.3,4.65,6.49,5.34,10.56c0.05,0.3,0.29,0.57,0.4,0.87 c0.86,2.32,2.1,4.47,3.32,6.6c2.9,5.07,4.87,10.51,6.83,15.98c2.8,7.8,4.84,15.82,6.99,23.8c1.49,5.52,2.6,11.15,3.91,16.72 c1,4.27,1.62,8.58,1.33,12.97c-0.53,8.18-1.11,16.36-1.65,24.53c-0.31,4.69-0.91,9.35-1.75,13.95c-0.89,4.84-2.36,9.57-3.31,14.41 c-0.32,1.62-0.75,3.25-1.5,4.77c-3.2,6.43-7.25,12.16-13.23,16.33c-0.91,0.64-1.76,1.36-2.65,2.02c-0.64,0.48-1.08,1.04-0.57,1.81 c0.58,0.85,1.25,0.31,1.88-0.01c0.07-0.04,0.15-0.06,0.21-0.11c3.27-2.41,6.5-4.89,9.14-7.99c3.37-3.94,6.05-8.34,8.13-13.27 c1.29,1.15,2.58,2.25,4.11,2.88c4.87,2,9.91,3.52,15.13,4.1c7.23,0.8,14.3,2.11,21.06,4.86c0.8,0.33,1.7,0.61,2.32,1.17 c2.34,2.1,5.08,3.56,7.81,5.03c4.07,2.19,6.17,5.81,7.46,10.05c0.23,0.75,0.23,1.49,0.1,2.25c-0.65-0.08-0.7-0.52-0.82-0.88 c-0.59-1.64-1.62-3.1-1.97-4.85c-0.12-0.57-0.59-0.97-1.27-0.74c-0.67,0.23-1.13,0.63-0.81,1.43c0.41,1.04,0.83,2.07,1.27,3.09 c0.8,1.84,1.28,3.7,1.29,5.76c0.01,1.23-0.53,1.56-1.42,1.73c-1.57,0.31-3.08-0.15-4.62-0.28c0.34-2.57-0.74-6.91-2.12-8.78 c-0.14-0.19-0.28-0.4-0.47-0.53c-0.33-0.24-0.71-0.38-1.11-0.14c-0.3,0.18-0.38,0.49-0.38,0.82c0.01,0.75,0.42,1.35,0.72,2 c0.69,1.51,1.57,2.96,1.45,4.72c-0.1,1.52-0.27,1.71-1.88,1.65c-7.81-0.32-15.61-0.69-23.42-0.95c-6.52-0.22-13.06-0.7-19.56,0.4 c-1.72,0.29-3.45,0.62-5.19,0.75c-6.55,0.52-13.06,0.29-19.51-1.1c-1.4-0.3-2.83-0.23-4.23,0.33c-2.21,0.89-4.47,1.67-6.7,2.51 c-0.51,0.19-0.98,0.55-1.73,0.1c0.42-1.59,0.04-3.22-0.44-4.79c-1.38-4.6-3.84-8.47-8.41-10.44c-3.59-1.55-7.32-2.36-10.8,0.47 c-0.26,0.21-0.48,0.39-0.83,0.26c-2.5-0.89-5.24-1.06-7.59-2.41c0.19-0.69,0.71-0.97,1.12-1.32c2.96-2.55,5.88-5.14,8.63-7.91 c2.78-2.8,5.05-5.93,6.18-9.76c0.43-1.45,0.7-2.94,1.09-4.4c0.22-0.82,0.08-1.5-0.77-1.71c-1-0.24-1.13,0.65-1.32,1.31 c-0.23,0.76-0.38,1.55-0.55,2.33c-0.63,2.91-1.77,5.56-3.58,7.98c-1.98,2.65-4.52,4.66-6.9,6.88c-3.2,2.98-6.83,5.44-10.2,8.21 c-2.12,1.74-4.39,3.21-6.91,4.17c-3.95,1.51-7.68,3.47-11.42,5.39c-2.27,1.16-4.47,2.44-6.7,3.69c-0.63,0.36-0.89,0.96-0.59,1.63 c0.36,0.8,0.99,0.6,1.6,0.26c0.35-0.19,0.7-0.38,1.05-0.56c3.73-1.94,7.31-4.15,11.18-5.83c5.18-2.25,10.41-4.42,14.96-7.87 c0.65-0.49,1.24-0.48,2-0.25c2.97,0.9,6,1.6,8.93,2.62c3.05,1.07,6.1,0.98,9.21,0.61c0.55-0.07,1.31-0.11,1.36-0.74 c0.11-1.34,0.69-0.87,1.32-0.48c2.94,1.82,4.52,4.65,5.65,7.77c0.92,2.52,0.67,4.87-0.7,7.31c-1.21,2.15-2.44,4.25-3.95,6.18 c-1.67,2.14-3.7,3.67-6.63,3.69c-2.05,0.01-4.09,0.3-6.15,0.4c-5.42,0.26-10.78,1-16.14,1.77c-6.79,0.98-13.62,1.53-20.45,1.96 c-5.69,0.36-11.43,0.32-17.15,0.2c-9.3-0.19-18.38-1.56-27.33-3.98c-3.1-0.84-5.82-2.57-8.83-3.52c-1.97-0.62-3.51-1.7-4.99-3.05 c-1.15-1.06-1.47-2.6-2.45-3.76c-1-1.19-1.26-2.71-1.06-4.27c0.38-3,1.02-5.95,1.75-8.89c0.7-2.78,1.3-5.58,1.95-8.37 c0.2-0.86,0.1-1.71-0.88-1.91c-1.07-0.22-1.26,0.66-1.42,1.49c-0.23,1.25-0.46,2.5-0.73,3.74c-0.87,4.04-2.17,7.98-2.78,12.08 c-0.35,2.38-0.12,4.61,1.23,6.63c0.72,1.08,1.01,2.27,1.49,3.39c-0.29,0.15-0.41,0.28-0.54,0.28c-6.12,0.28-12.25,0.56-18.38,0.44 c-7.33-0.15-14.63-0.72-21.92-1.36c-7.85-0.69-15.7-1.32-23.54-2.21c-5.69-0.65-11.39-1.34-17.15-1.35 c-5.18,0-10.37-0.08-15.54,0.33c-6.74,0.52-13.44,1.48-20.22,1.47c-8.09-0.01-16.02-1.2-23.71-3.69 c-5.12-1.66-10.34-2.63-15.71-2.65c-7.56-0.03-15.13,0.06-22.69-0.04c-3.54-0.05-7.04-0.59-10.4-1.55 c-0.08-0.58,0.24-0.69,0.51-0.85c2.13-1.24,4.26-2.47,6.39-3.71c1.11-0.65,1.37-1.27,0.84-2.06c-0.56-0.84-1.24-0.44-1.86-0.07 c-5.69,3.34-11.46,6.57-16.84,10.42c-5.7,4.08-11.22,8.44-17.33,11.91c-3.95,2.25-8.03,4.21-12.54,5.14 c-2.38,0.49-4.76,0.51-7.19,0.16c1.49-0.71,2.74-1.65,3.86-2.75c0.43-0.42,0.63-0.94,0.22-1.5c-0.42-0.56-0.98-0.47-1.5-0.2 c-0.35,0.18-0.63,0.5-0.97,0.69c-1.72,0.93-3.25,2.37-5.46,1.99c-0.3-0.05-0.67,0.07-0.81,0.39c-0.56,1.24-1.38,0.72-2.16,0.32 c-2.39-1.23-3.7-3.27-4.54-6.06c1.81,0.52,2.93-0.43,4.13-1.22c0.72-0.47,1.12-1.07,0.67-1.77c-0.48-0.75-1.31-0.63-1.82,0.01 c-1.01,1.25-2.66,0.27-3.76,1.19c-0.21,0.17-0.49-0.26-0.65-0.54c-1.16-2.11-2-4.23-1.85-6.77c0.17-2.87,0.96-5.5,2.4-7.89 c2.91-4.83,6.09-9.48,9.57-13.93c0.69-0.88,1.25-1.81,1.71-2.84c1.4-3.12,2.71-6.28,4.35-9.27c3.83-6.97,8.29-13.53,13.73-19.36 c3.85-4.13,7.6-8.33,12.01-11.91c3.02-2.45,6.09-4.9,8.62-7.89c2.01-2.37,4.06-4.69,6.37-6.78c2.06-1.87,4.42-3.36,6.55-5.13 c1.98-1.65,4.1-3.01,6.39-4.11c1.85-0.89,3.84-1.49,5.73-2.24c2.05-0.82,4.08-1.5,6.21-1.96c0.31-0.07,0.61-0.21,0.88-0.36 c0.63-0.34,1.45-0.69,1.15-1.56c-0.33-0.98-1.26-0.83-2.04-0.63c-0.85,0.21-1.66,0.57-2.5,0.78c-1.03,0.26-1.87,0.15-2.69-0.81 c-1.19-1.38-2.64-2.53-4.02-3.73c-2.03-1.78-4.38-2.83-7.08-3.1c-0.6-0.06-1.21-0.11-1.81-0.15c-0.62-0.04-1.24-0.07-1.85-0.09 c-3.6-0.1-7.18,0.17-10.76,0.78c0,0,0,0,0,0c-2.59,0.98-5.25,1.82-7.76,2.97c-7.55,3.45-15.22,6.53-23.34,8.41 c-3.35,0.77-6.57,1.99-9.52,3.75c-7.15,4.25-13.7,9.31-19.6,15.18c-1.48,1.47-2.78,3.14-3.23,5.23c-1.58,7.26-1.92,14.49,0.19,21.75 C2.78,227.44,4.45,231.75,5.69,236.2z M364.73,253.66c2.35-1.29,4.42-0.8,6.49-0.05C369.17,253.67,367.09,254.67,364.73,253.66z M3.39,202.28c0.27-1.67,1.25-3.02,2.44-4.29c4.71-5.03,10.3-9.02,15.79-13.08c3.78-2.8,8.2-4.61,12.82-5.65 c8.68-1.96,16.82-5.32,24.82-9.1c2.32-1.1,4.85-1.53,7.22-2.49c0.28-0.11,0.63-0.11,0.95-0.1c3.03,0.18,6.03-0.41,9.05-0.48 c5.05-0.12,8.53,2.59,11.63,6.07c0.58,0.65,0.58,1.22-0.45,1.59c-6.57,2.36-12.61,5.68-17.97,10.19c-1.14,0.96-2.21,1.99-3.34,3.02 c-0.59-0.79-0.28-1.55-0.51-2.2c-0.19-0.55-0.55-1.07-1.16-1.06c-0.62,0.01-0.99,0.54-1.07,1.12c-0.15,1.03-0.17,2.09,0.16,3.08 c0.43,1.31,0.06,2.29-0.92,3.2c-0.7,0.64-1.24,1.45-1.89,2.15c-0.63,0.67-1.14,0.85-1.92-0.05c-3.43-3.88-7.93-6.06-12.75-7.66 c-0.23-0.07-0.46-0.17-0.69-0.18c-0.75-0.03-1.22,0.4-1.39,1.07c-0.15,0.58,0.36,0.85,0.79,1.04c1.89,0.85,3.8,1.66,5.69,2.5 c1.68,0.74,3.24,1.69,4.69,2.83c0.45,0.35,0.83,0.72,1.15,1.19c1.17,1.69,1.18,2.31-0.32,3.71c-1.69,1.57-3.43,3.1-5.23,4.55 c-1.75,1.41-3.28,3.01-4.73,4.72c-2.22,2.61-4.78,4.9-6.98,7.54c-6.17,7.41-11.11,15.55-15.04,24.33c-0.59,1.31-1.17,2.63-1.88,3.87 c-0.83,1.44-1.39,1.56-2.9,0.96c-0.89-0.35-1.8-0.64-2.7-0.97c-4.53-1.65-7.72-4.48-9-9.36c-1.01-3.84-2.51-7.55-3.68-11.36 c-1.03-3.35-1.83-6.75-1.8-10.29C2.28,209.19,2.83,205.73,3.39,202.28z M166.13,87.21c-1.18-0.09-2.38-0.13-3.55,0.25 c-1.2,0.39-1.72,1.52-2.58,2.38c-0.26-0.48-0.46-0.82-0.63-1.18c-1.75-3.64-7.18-5.02-10.18-0.68c-1.32,1.91-2.38,3.94-2.32,6.39 c0.03,1.5-0.81,1.98-2.11,1.24c-0.68-0.39-1.38-0.87-1.87-1.47c-1.79-2.22-3.68-4.37-5.18-6.82c-1.84-3.01-3.91-5.84-7.49-7.05 c-3.25-1.1-6.29-0.61-9.11,1.22c-0.98,0.64-1.26,1.77-0.72,2.21c0.75,0.6,1.32,0.02,1.89-0.41c0.13-0.1,0.22-0.25,0.36-0.3 c2.96-1.18,5.92-2.19,8.87,0.03c-0.17,0.52-0.54,0.69-0.89,0.86c-2.96,1.42-5.63,3.3-8.28,5.21c-5.2,3.74-9.51,8.24-12.15,14.16 c-0.27,0.6-0.62,1.11-1.11,1.53c-1.25,1.08-1.98,2.48-2.44,4.03c-2.84,9.41-3.9,18.87-0.57,28.39c0.66,1.87,0.59,3.35-1.09,4.56 c-0.06,0.05-0.13,0.1-0.18,0.15c-4.75,5.35-8.06,11.37-8.96,18.61c-0.61,4.94,0.86,9.38,3.4,13.37c1.83,2.88,4.88,4.7,7.94,6.29 c8.12,4.23,16.89,6.7,25.76,8.47c11.55,2.3,23.34,3.12,35.1,3.89c3.62,0.24,7.25,0.58,10.42,2.82c3.15,2.23,6.78,3.47,10.57,4.08 c2.51,0.41,4.33,1.51,5.72,3.68c2.24,3.48,5.48,5.95,8.92,8.17c0.88,0.57,1.82,0.96,2.84,1.18c1.33,0.29,2.73,0.73,3.75-0.55 c0.97-1.22,0.46-2.59-0.01-3.86c-0.21-0.58-0.41-1.2-0.87-1.68c-0.27-0.28-0.48-0.64-0.65-1c-0.21-0.46-0.87-0.97-0.35-1.45 c0.55-0.51,0.97,0.16,1.35,0.5c0.65,0.59,1.24,1.24,1.91,1.8c1.72,1.44,3.5,2.78,5.87,2.92c1.36,0.08,2.62-0.26,3.38-1.41 c0.76-1.16,0.57-2.44-0.24-3.57c-0.74-1.03-1.47-2.08-2.28-3.06c-0.91-1.11-1.82-2.21-2.74-3.3s-1.84-2.19-2.76-3.29 c-0.27-0.15-0.5-0.34-0.7-0.57c-0.2-0.23-0.38-0.5-0.54-0.8c0.79-0.33,1.2,0.29,1.72,0.6c3.31,2.04,6.6,4.13,9.95,6.11 c2.06,1.22,4.26,1.83,6.54,0.51c1.74-1.01,2.09-2.64,0.85-4.21c-0.64-0.8-1.42-1.5-2.21-2.17c-2.62-2.22-5.46-4.13-8.22-6.15 c-1.64-1.2-3.48-2.16-5-3.88c0.64,0,1.07-0.11,1.42,0.02c3.23,1.19,6.69,1.24,10.01,2.03c1.77,0.43,3.63,0.56,5.4-0.19 c1.06-0.45,2.08-0.96,2.18-2.28c0.1-1.25-0.56-2.09-1.63-2.69c-1.45-0.82-2.91-1.62-4.45-2.3c-4.75-2.08-9.77-3.36-15.01-5.02 c1.39-0.45,2.52-0.77,3.62-1.18c1.7-0.63,3.04-1.68,3.88-3.34c0.9-1.76,0.55-2.53-1.43-3.01c-3.33-0.81-6.73-1.29-10.11-1.74 c-2.94-0.4-5.86-0.36-8.69,0.86c-3.95,1.71-8.11,2.84-12.2,4.16c-4.7,1.52-9.22,1.01-13.75-0.62c-2.78-1-5.35-2.44-7.97-3.78 c-6.46-3.31-12.5-7.34-18.78-10.94c-0.63-0.36-1.51-0.56-1.88-1.5c0.62-0.22,1.19-0.46,1.78-0.63c4.74-1.4,9.59-2.26,14.49-2.86 c2.96-0.36,5.86-0.97,8.16-2.97c2.07-1.79,4.43-2.35,7.05-2.29c1.68,0.03,3.42,0.05,4.95-0.6c1.43-0.61,2.8-0.94,4.35-0.92 c0.99,0.02,2.19-0.21,1.81-1.79c-2.06-0.8-4.12-0.33-6.05,0.32c-1.47,0.5-2.92,0.71-4.42,0.83c-1.35,0.1-2.71,0.12-4.05,0.29 c-1.51,0.2-2.98,0.63-4.12,1.74c-2.37,2.3-5.4,2.94-8.51,3.39c-0.7,0.1-1.16-0.05-1.51-0.79c-4.96-10.65-12.68-18.59-23.36-23.6 c-1.43-0.67-2.66-1.67-4.14-2.8c3.62-0.8,5.79-3.42,8.36-5.34c5.54-4.14,10.75-8.74,16.34-12.81c3.51-2.56,7.38-4.64,11.41-6.4 c3.31-1.44,6.74-2.54,10.28-2.96c2.45-0.29,5-0.12,7.43,1.04c4.97,2.36,8.09,6.3,10.23,11.17c2.42,5.5,6.2,9.99,10.38,14.19 c0.77,0.78,2.06,0.76,2.7,1.84c0.3,0.49,0.42,0.79,0.06,1.22c-3.95,4.65-4.28,10.1-3.49,15.8c0.01,0.07-0.03,0.14-0.06,0.31 c-4.5,0.29-8.98,0.89-13.47,1.54c-0.8,0.12-1.61,0.01-2.07,0.87c0.06,0.2,0.13,0.37,0.21,0.52c0.32,0.59,0.81,0.79,1.36,0.82 c0.42,0.02,0.88-0.05,1.33-0.11c5.26-0.75,10.52-1.27,15.86-1.25c3.06,0.01,6.23,0.14,9.19-1.01c4.86-1.9,9.98-2.52,15.09-3.12 c4.19-0.49,8.43-0.37,12.63-0.62c5.12-0.3,10.15-0.15,15.18,0.88c2.56,0.52,5.21,0.66,7.77,0.05c2.03-0.49,4.08-0.73,6.14-0.83 c1.09-0.06,2.19,0.02,3.16-0.53c2.48,5.19,4.59,8.3,15.23,10.84c-1.94,2.54-3.25,5.31-4.11,8.32c-0.45,1.57-0.53,3.15-0.36,4.73 c0.2,1.84,1.05,3.43,2.82,4.14c1.77,0.71,3.4,0.19,4.85-1.08c1.82-1.6,3.18-3.54,4.47-5.55c1.68-2.6,3.4-5.17,5.41-7.54 c0.97-1.14,1.81-2.13,3.57-1.6c0.69,0.21,1.59-0.07,2.34-0.3c3.5-1.04,6.86-2.56,10.06-4.23c3.79-1.97,7.07-4.85,10.01-8.01 c0.94-1.01,1.6-2.17,1.87-3.53c0.65-3.18-0.91-4.73-4.12-4.14c-2.49,0.46-4.27,2.01-5.98,3.7c-2.91,2.86-6.09,5.37-9.67,7.33 c-4.46,2.45-8.9,4.85-14.21,5.13c-4.41,0.23-8.75,0.28-12.83-1.64c-4.18-1.96-7.19-4.87-7.26-9.88c-0.13-0.02-0.25-0.05-0.38-0.07 c-0.49-0.01-1.14-0.03-1.25,0.46c-0.33,1.48-1.17,1.49-2.38,1.13c-0.17-0.05-0.34-0.08-0.51-0.1c-0.53-0.06-1.08-0.02-1.62-0.05 c-1.45,0.04-2.85,0.33-4.25,0.64c-0.84,0.18-1.68,0.38-2.52,0.53c-2.64,0.48-5.19,0.1-7.71-0.67c-8.67-1.17-17.33-0.33-25.99,0.08 c-3.26,0.15-6.5,0.7-9.67,1.49c-1.25,0.31-1.86-0.09-2.53-1.06c-3.72-5.32-4.53-11.24-3.75-17.52c0.5-4.04,1.21-8.02,3.13-11.67 c0.18-0.35,0.43-0.66,0.65-0.99c0.68-1.47,1.48-2.86,2.36-4.2s1.84-2.63,2.84-3.89c0.01-0.09,0.03-0.18,0.06-0.26 c0.03-0.07,0.07-0.13,0.12-0.18c0.06-0.05,0.13-0.09,0.23-0.1c-0.01,0-0.02,0-0.03,0c3.53-5.34,6.03-11.36,10.56-16.04 c1.07-1.11,1.96-2.54,3.89-2.25c0.32,0.05,0.74-0.26,1.06-0.48c4.46-3.05,8.91-6.11,13.36-9.18c0.16-0.11,0.31-0.24,0.45-0.37 c0.14-0.13,0.29-0.27,0.43-0.4c0.03-0.06,0.07-0.11,0.11-0.15c0.12-0.14,0.27-0.21,0.49-0.14c0,0,0.05,0.01,0.05,0.01 c-0.01-0.2,0.03-0.37,0.1-0.52c0.15-0.32,0.44-0.55,0.7-0.81c0.13-0.12,0.25-0.25,0.34-0.4c0.32-0.52,0.58-0.99,0.01-1.47 c-0.48-0.4-1.04-0.43-1.55-0.09c-0.33,0.21-0.6,0.52-0.88,0.8c-3.48,3.59-7.83,6.01-12.01,8.6c-1.63,1.01-3.62,1.47-5.22,2.71 c-2.68,2.07-4.89,4.55-6.85,7.28c-0.34,0.48-0.46,1.56-1.53,1c-0.89-0.46-1.65-1.04-1.47-2.2c0.17-1.1,0.38-2.2,0.59-3.29 c0.82-4.46,1.69-8.91,3.52-13.1c0.49-1.13,0.25-2.03-1-2.49c-1.49,2.01-2.29,4.31-2.92,6.66c-0.09,0.34-0.18,0.67-0.26,1.01 c-0.92,3.63-1.62,7.31-2.19,11.01c-0.12,0.75-0.26,1.24-1.21,1.43c-6.58,1.36-10.28,6.43-9.76,13.15c0.11,1.37,0.49,2.66,0.76,3.98 c0.32,1.54,1.1,2.75,2.74,3.11c-0.82,2.32-1.91,4.35-2.53,6.6c-0.79,2.86-1.05,5.8-1.46,8.71c-0.25,1.81-0.68,1.67-2.17,1.85 c-0.68,0.08-1.23-0.19-1.77-0.56c-1.09-0.75-2.21-1.54-3.17-2.36c-2.04-1.73-3.77-3.86-5.49-5.93c-2.26-2.71-3.72-5.91-5.33-9.02 c-1.52-2.92-3.32-5.68-5.91-7.72c-2.21-1.74-4.31-3.84-7.37-4.13c-2.47-0.23-4.93-0.25-7.38,0.2c-7.11,1.3-13.43,4.39-19.37,8.4 c-9.24,6.24-17.58,13.71-26.79,19.99c-0.53,0.36-0.76,0.85-0.62,1.43c0.25,1.05-0.37,1.59-1.06,2.17c-2.92,2.48-6.02,4.71-9.13,6.92 c-3.82,2.71-7.61,5.47-11.34,8.87c-0.88-3.03-1.71-5.74-2.04-8.57c-0.63-5.33-0.3-10.58,0.93-15.83c0.71-3.01,1.61-5.81,3.82-8.05 c0.58-0.59,0.8-1.37,1.15-2.08c2.34-4.67,5.39-8.75,9.75-11.74c0.85-0.58,1.63-1.28,2.49-1.86c2.43-1.67,4.91-3.25,7.57-4.52 c0.98-0.47,1.71-0.51,2.35,0.65c0.99,1.8,2.18,3.49,3.3,5.23c1.57,2.43,3.38,4.62,5.88,6.18c1.18,0.73,2.38,1,3.6,0.28 c1.16-0.69,2.04-1.48,1.83-3.17c-0.27-2.14,0.73-4.05,1.97-5.74c1.45-1.98,2.15-1.66,4.15-1.2c0.96,0.22,1.55,1.07,1.95,1.98 c0.25,0.59,0.45,1.22,1.13,1.45c0.78,0.27,1.04-0.42,1.54-0.74c0.39-0.25,0.38,1.08,1.18,0.96c0.36-0.06,0.48-0.38,0.69-0.61 c0.97-1.09,2.15-1.56,3.62-1.34c0.46,0.07,0.95-0.04,1.43-0.09c0.48-0.05,0.83-0.08,1.11-0.14c0.82-0.18,0.89-0.57,1.15-2.15 C168.12,86.52,167.17,87.29,166.13,87.21z M311.93,143.97c0.1-0.84,0.23-1.61,0.96-2.13c0.1-0.07,0.22-0.14,0.35-0.21 c3.63-1.78,6.99-4.01,10.15-6.53c0.05-0.04,0.13-0.06,0.21-0.06c0.08-0.01,0.17-0.01,0.24-0.02c0.68-1.14,1.59-2.04,2.6-2.85 c0.34-0.27,0.68-0.53,1.04-0.78c0.67-1.41,2.08-1.63,3.34-1.98c1.12-0.31,1.61,0.34,1.23,1.51c-0.4,1.25-1.25,2.27-2.14,3.12 c-4.91,4.65-10.6,8.02-17.05,10.09c-0.22,0.07-0.47,0.06-0.71,0.08c-0.22,0.24-0.44,0.45-0.75,0.13 C311.57,144.23,311.75,144.1,311.93,143.97C311.93,143.97,311.93,143.97,311.93,143.97L311.93,143.97 C311.93,143.97,311.93,143.97,311.93,143.97z M298.08,145.85c2.93-0.17,5.86-0.36,8.77-1.06c-3.03,3.33-5.43,6.99-7.81,10.68 c-1.08,1.67-2.16,3.38-3.71,4.67c-0.75,0.62-1.58,1.43-2.77,0.83c-1.06-0.54-1.26-1.53-1.47-2.55c-0.24-1.24,0.27-2.37,0.54-3.51 c0.72-2.96,2.04-5.65,4.18-7.91C296.46,146.29,297.15,145.9,298.08,145.85z M218.03,95.89c-1.49-5.32,3.82-11.49,8.96-11.31 c0.4,0.01,0.8,0.04,1.18,0.14c1.85,0.5,2.17,1.2,1.12,2.84c-2.83,4.43-5.73,8.82-8.61,13.22c-0.17,0.26-0.31,0.57-0.85,0.6 C219.14,99.53,218.55,97.73,218.03,95.89z M211.96,122.59c0.87-0.86,1.96-0.47,2.9-0.42c0.73,0.04,0.54,1.04,0.62,1.61 c0.6,4.31,1.84,8.36,4.65,11.98c-3.51,2.08-7.16,2.04-10.82,1.99c-0.66-0.01-0.96-0.26-1.08-0.95c-0.58-3.24-0.67-6.44,0.53-9.59 C209.45,125.4,210.6,123.93,211.96,122.59z M208.43,203.85c-0.41,0.47-0.61,0.01-0.8-0.3c-0.74-0.59-0.97-1.46-1.32-2.28 c0.59,0.29,1.07,0.66,1.44,1.14c0.12,0.16,0.23,0.33,0.34,0.51c0.1,0.15,0.29,0.29,0.4,0.45c0.04,0.06,0.07,0.12,0.07,0.19 C208.55,203.65,208.52,203.74,208.43,203.85z M156.11,147.6c-1.63,0.27-3.19,0.93-5.22,0.83c1.97-1.36,3.96-1.96,5.84-2.8 C157.56,147.31,157.57,147.36,156.11,147.6z M114.9,136.16c4.74-3.63,9.56-7.15,14.35-10.71c0.97-0.72,1.69-1.69,2.56-2.64 c2.19,1.2,4.39,2.44,6.62,3.61c4.75,2.51,9.04,5.63,12.43,9.83c1.83,2.26,3.83,4.44,4.94,7.21c-4.73,1.85-9.29,3.92-13.24,7.12 c-0.5,0.41-0.86,0.13-1.3-0.03c-1.79-0.67-3.56-1.35-5.42-1.84c-3.54-0.94-7.11-0.75-10.7-0.67c-0.57,0.01-1.09,0.09-1.43,0.66 c-0.59,0.99-0.27,1.68,0.88,1.69c1.67,0,3.34-0.13,5.01-0.12c5.6,0.04,10.52,2.22,15.33,4.81c5.39,2.9,10.36,6.51,15.76,9.4 c4.26,2.29,8.46,4.71,12.98,6.48c3.86,1.51,7.91,1.64,11.98,1.49c0.61-0.02,1.22-0.34,1.82-0.52c4.42-1.31,8.89-2.49,13.12-4.37 c2.45-1.09,4.95-1.41,7.66-1c3.27,0.5,6.53,1.03,9.96,1.57c-0.49,1.22-1.37,1.57-2.23,1.95c-2.24,0.97-4.61,1.2-7,1.31 c-1.51,0.07-3.04-0.04-4.5,0.48c-0.66,0.23-1.13,0.69-1.04,1.41c0.08,0.72,0.57,1.06,1.32,1.11c5.22,0.36,10.07,2.22,15,3.73 c3.18,0.97,6.31,2.14,9.36,3.51c0.88,0.4,1.66,0.89,2.47,1.58c-1.4,1.01-2.82,0.72-4.2,0.47c-4.39-0.78-8.77-1.62-13.16-2.41 c-0.86-0.15-1.74-0.2-2.61-0.25c-0.54-0.03-1.16-0.12-1.49,0.48c-0.38,0.69,0.04,1.24,0.43,1.73c0.8,1,1.73,1.87,2.76,2.62 c3.48,2.52,6.99,5.01,10.46,7.55c1.54,1.12,3,2.35,4.51,3.51c0.35,0.27,0.58,0.57,0.49,1c-0.11,0.56-0.58,0.77-1.07,0.77 c-1.39,0.02-2.65-0.45-3.82-1.18c-3.39-2.08-6.81-4.13-10.18-6.25c-0.75-0.47-1.53-0.85-2.33-1.17c-0.79-0.32-1.65-0.81-2.34,0.22 c-0.64,0.95-1.25,1.91-0.32,3.02c2.14,2.57,4.29,5.12,6.42,7.7c1.06,1.28,2.1,2.59,3.12,3.9c0.3,0.38,0.58,0.87,0.32,1.32 c-0.33,0.58-0.98,0.44-1.52,0.36c-1.58-0.23-2.76-1.22-3.88-2.23c-1.6-1.44-3.1-2.98-4.65-4.47c-1.5-1.43-3-2.86-4.52-4.26 c-0.88-0.82-2.1-0.84-3.02-0.11c-0.89,0.71-0.52,1.65-0.22,2.4c0.32,0.79,0.96,1.45,1.45,2.18c1.6,2.38,3.21,4.74,4.76,7.15 c0.51,0.79,0.96,1.65,1.12,2.61c-0.56,0.55-1.06,0.11-1.53-0.1c-3.63-1.63-6.63-4.04-9.06-7.19c-0.68-0.88-1.39-1.74-2.08-2.62 c-0.97-1.24-2.2-2-3.76-2.33c-2.64-0.56-5.26-1.21-7.83-2.07c-2.39-0.8-4.25-2.47-6.49-3.53c-2.21-1.05-4.45-1.77-6.86-1.82 c-7.41-0.15-14.79-0.81-22.16-1.52c-6.51-0.63-12.89-1.91-19.21-3.57c-4.84-1.27-9.73-2.4-14.39-4.24 c-4.36-1.72-8.73-3.48-12.16-6.9c-1.09-1.09-2.04-2.2-2.51-3.69c-0.56-1.78-1.51-3.35-1.76-5.35c-0.7-5.7,1.01-10.66,3.78-15.41 C105.29,144.05,109.95,139.95,114.9,136.16z M141.93,7.18C141.93,7.18,141.93,7.18,141.93,7.18c1.15,0.28,2.3,0.59,3.45,0.9 c1.96,0.53,3.91,1.07,5.86,1.65c3.08,0.91,6.16,1.87,9.23,2.83c2.65,0.83,5.26,1.79,7.86,2.77c9.5,3.59,17.3,9.64,24.35,16.79 c1.35,1.37,2.34,3.03,3.08,4.79c2.02,4.77,3.47,9.71,4.29,14.84c0.45,2.78-0.36,5.36-0.95,7.99c-0.2,0.88-0.91,1.26-1.61,1.64 c-0.75-0.84-0.53-1.86-0.26-2.72c1.29-4.22,0.86-8.34-0.53-12.42c-1.23-3.6-2.11-7.33-4.03-10.67c-0.92-1.59-2.04-3.01-3.44-4.2 c-5.14-4.41-10.47-8.58-16.46-11.76c-3.28-1.75-6.79-3.07-10.37-4.15c-6-1.81-12.03-3.54-18.05-5.3c-0.69-0.2-1.44-0.33-2.02-0.71 C141.49,8.88,140.79,8.14,141.93,7.18z M57.21,41.07c-0.66-0.61-0.72-1.18-0.16-1.72c0.08-0.08,0.17-0.15,0.28-0.23 c3.76-2.64,6.61-6.2,9.62-9.58c6.7-7.53,14.71-13.32,23.5-18.14c7-3.84,14.32-6.88,21.99-9.09c2.28-0.66,4.6-1.19,6.93-1.69 c1.44-0.31,1.7-0.07,2.34,1.56c-1.19,1.2-2.85,0.8-4.25,1.13c-8.24,1.94-16,5.05-23.55,8.8c-7.43,3.69-14.12,8.45-20.44,13.78 c-1.4,1.18-2.5,2.65-3.72,4c-3.09,3.41-6.11,6.89-9.6,9.92C59.29,40.55,58.47,41.33,57.21,41.07z M46.04,156.73 c-4.05-1.62-7.84-3.57-10.74-6.84c-0.41-0.47-0.81-0.96-1.19-1.49c-1.64-2.28-3.11-4.54-3.34-7.49c-0.1-1.26-0.87-2.49-1.43-3.69 c-1.81-3.9-3.4-7.87-3.81-12.21c-0.2-2.17,0.26-4.27,0.58-6.39c0.09-0.58,0.43-1.02,0.92-1.34c0.8,0.32,1.38,0.75,1.16,1.76 c-0.2,0.93-0.39,1.87-0.51,2.81c-0.34,2.56-0.06,5.11,0.8,7.51c1.08,3.04,1.81,6.25,3.99,8.82c0.61,0.71,0.91,1.8,0.78,2.69 c-0.34,2.3,0.87,4.07,2.07,5.61c2.92,3.73,6.56,6.63,11.16,8.16c2.55,0.85,5.1,1.05,7.72,0.51c0.39-0.08,0.76-0.23,1.14-0.31 c0.68-0.14,1.44,0.03,1.52,0.69c0.07,0.59-0.06,1.38-1.02,1.65c-2.51,0.69-5.01,0.63-7.53,0.23 C47.55,157.26,46.8,156.95,46.04,156.73z M27.94,110.72c-0.31-0.41-0.79-0.66-1.07-1.12c-0.09-0.15-0.17-0.32-0.2-0.53 c-0.4-2.17,0.38-3.23,2.89-3.58c-0.04-1.47-0.78-2.71-1.35-4c-0.32-0.72-0.88-1.43-0.28-2.21c0.61-0.81,1.36-0.42,2.15-0.21 c1.84,0.5,2.76-0.09,3.33-2.04c0.83-2.86,0.67-5.82,0.82-8.75c0.04-0.87,0-1.75,0.06-2.62c0.04-0.64,0.15-1.34,0.95-1.45 c0.84-0.12,1,0.61,1.26,1.18c-0.43,2.61,0.04,5.25-0.29,7.86c-0.12,0.94-0.19,1.89-0.31,2.83c-0.36,2.92-1.64,4.96-4.99,5.36 c0.31,1.13,0.67,2.16,0.88,3.22c0.36,1.82-0.15,2.9-1.86,3.28c-1.07,0.24-1.29,0.56-1.1,1.55C28.93,110.08,28.6,110.57,27.94,110.72 z M47.66,66.63c-0.54-0.41-0.72-0.94-0.77-1.53c-0.02-0.2-0.02-0.4-0.02-0.6c0.02-4.05-0.61-8.06-0.9-12.09 c-0.31-4.39-0.02-8.72,1-13c0.16-0.69,0.44-1.36,0.67-2.03c0.16-0.48,0.43-0.85,0.98-0.89c0.61-0.05,0.74,0.51,1.04,0.85 c-0.62,3.25-1.42,6.47-1.64,9.81c-0.2,3.16,0.06,6.26,0.37,9.37c0.27,2.67,0.77,5.31,0.69,8.01C49.05,65.54,48.89,66.44,47.66,66.63 z M58.87,163.41c-1.47-0.12-2.93-0.22-4.33-0.69c-0.46-0.16-0.92-0.35-1.37-0.6c-0.79-0.44-1.49-0.89-1.65-1.85 c0.56-0.62,1.23-0.73,1.94-0.35c4.28,2.26,8.49,1.08,12.69-0.23c2.94-0.91,5.89-1.81,8.9-2.46c0.63-0.14,1.26-0.21,1.89-0.14 c0.69,0.08,0.91,0.6,0.94,1.19c0.03,0.6-0.21,1.13-0.91,1.17c-5.14,0.3-9.81,2.59-14.81,3.48 C61.07,163.12,59.96,163.21,58.87,163.41z M124.94,2.32c-0.37-0.26-0.78-0.51-0.92-0.88c-0.09-0.22-0.08-0.48,0.08-0.81 c0.34-0.69,1.03-0.67,1.68-0.59c2.6,0.34,5.22,0.64,7.81,1.07c4.77,0.8,9.5,0.77,14.22-0.36c0.31-0.07,0.62-0.21,0.93-0.22 c0.76-0.02,1.74-0.36,2.04,0.68c0.26,0.9-0.73,1.07-1.24,1.51c-7.33,2.17-14.66,0.86-21.99-0.03C126.67,2.57,125.8,2.44,124.94,2.32 z M196.35,63.5c0.47,1.82-0.28,3.44-0.94,5c-0.09,0.22-0.19,0.45-0.27,0.67c-1.25,3.25-2.96,6.31-5.24,8.99 c-0.51,0.6-1.07,1.17-1.66,1.69c-1.72,1.51-2.15,1.49-4.02-0.06c0.24-0.4,0.35-1.1,0.8-1.1c2.16-0.01,2.89-1.8,3.89-3.12 c2.47-3.26,4.2-6.92,5.24-10.87C194.5,63.41,195.07,62.89,196.35,63.5z M34.58,60.96c-0.08-0.22-0.13-0.46-0.26-0.64 c-0.49-0.69-0.57-1.34,0.24-1.81c0.92-0.53,1.24,0.2,1.64,0.82c2.55,3.94,5.07,7.89,7.19,12.08c0.43,0.84,0.7,1.78,1.48,2.41 c-0.01,0.6,0.4,1.45-0.33,1.7c-0.67,0.23-1.39-0.2-1.78-0.89c-1.12-2.01-2.21-4.03-3.35-6.03C37.93,65.97,36.4,63.37,34.58,60.96z M38.59,83.91c0.35-1.52,0.19-2.97-0.17-4.38c-0.2-0.79-0.46-1.57-0.74-2.34c-0.11-0.31-0.22-0.62-0.34-0.92 c-0.82-2.24-1.76-4.44-2.62-6.66c-0.39-1.02-0.58-2.04,0.69-2.65c0.47,0.19,0.82,0.56,0.96,1.01c1.36,4.21,3.72,8.05,4.4,12.51 c0.17,1.12,0.21,2.21,0.05,3.31c-0.08,0.54-0.02,1.21-0.68,1.38c-0.65,0.17-0.92-0.49-1.3-0.86C38.73,84.21,38.67,84.05,38.59,83.91 z M235.01,56.24c-0.96-1.4-1.09-1.6-0.27-2.27c0.12-0.1,0.25-0.2,0.41-0.32c2.68-2.09,5.73-3.36,9.09-3.73 c1.77-0.2,3.71-0.32,4.78,1.7c-0.41,0.65-0.95,1.17-1.77,0.89c-3.73-1.26-6.8,0.39-9.83,2.21C236.6,55.2,235.81,55.73,235.01,56.24z M176.29,79.09c-1.22,1.53-2.14,3.24-3.09,4.93c-0.32,0.56-0.63,1.13-0.96,1.68c-0.52,0.87-1.1,1.87-2.35,0.85 c0.79-3.06,2.68-5.54,4.32-8.15c0.33-0.53,0.79-1.08,1.56-0.77C176.46,77.9,176.15,78.59,176.29,79.09z M395.63,102.39 c-0.15-0.58-0.1-1.17,0.57-1.38c0.74-0.23,1.24,0.15,1.45,0.86c1.21,3.94,2.51,7.87,2.44,11.41c0.07,2.26-0.15,3.83-0.65,5.36 c-0.23,0.7-0.61,1.36-1.57,0.95c-0.74-0.32-0.8-0.86-0.58-1.57c1.21-4.06,0.49-8.01-0.65-11.95 C396.29,104.84,395.95,103.62,395.63,102.39z M312.08,150.79c0.01-0.71,0.56-0.91,1.15-0.95c0.55-0.04,1.11-0.01,1.66-0.01 c3.81,0.09,7.28-1.32,10.81-2.48c0.6-0.2,1.16-0.51,1.76-0.71c0.57-0.19,1.1-0.12,1.43,0.49c0.4,0.74,0.02,1.23-0.59,1.56 c-1.82,0.98-3.8,1.59-5.78,2.13c-1.91,0.52-3.87,0.89-5.81,1.29c-1.28,0.26-2.53,0.01-3.76-0.32 C312.46,151.67,312.07,151.33,312.08,150.79z M330.13,103.18c0.33,0.59-0.12,1.07-0.39,1.51c-0.62,1.06-3.37,2.25-4.56,2.05 c-0.52-0.09-0.89-0.39-1.06-0.83c-0.26-0.72-0.08-1.38,0.46-1.95c0.66-0.69,2.67-1.46,4.01-1.45 C329.14,102.48,329.78,102.54,330.13,103.18z M392.14,123.48c0.58-1.11,1.26-2.16,1.48-3.45c0.1-0.56,0.58-0.92,1.26-0.77 c0.66,0.14,0.49,0.69,0.59,0.99c-0.05,1.69-0.8,2.98-1.62,4.22c-0.36,0.55-0.97,0.91-1.62,0.48 C391.62,124.57,391.88,123.97,392.14,123.48z M388.42,128.72c0.57-0.75,1.27-1.4,1.96-2.04c0.32-0.3,0.77-0.27,1.08,0.02 c0.21,0.2,0.4,0.55,0.4,0.83c0,0.82-1.8,2.42-2.63,2.42C388.42,129.94,387.96,129.33,388.42,128.72z M267.96,64.26 c1.35-0.41,2.34-0.31,3.03,0.31c0.41,0.37,0.72,0.93,0.94,1.68c0.52,1.79,0.1,3.48-0.4,5.15c-0.73,2.44-1.53,4.86-2.62,7.17 c-2.07,4.4-3.93,8.91-5.21,13.59c-1.11,4.06-1.55,8.29-0.44,12.5c0.08,0.31,0.19,0.6,0.73,0.86c0.43-1.67,0.29-3.37,0.57-5 c0.58-3.34,1.71-6.46,3.09-9.52c0.24-0.52,0.56-1.18,1.11-1.15c1.31,0.08,1.35-0.84,1.53-1.66c0.28-1.25,0.53-2.5,1.17-3.62 c0.36-0.63,0.81-1.32,1.67-0.89c0.8,0.4,0.4,1.13,0.21,1.69c-1.39,4.12-1.93,8.37-1.87,12.68c0.04,2.6,0.14,5.21,0.6,7.79 c0.37,2.07,1.29,3.92,2.26,5.75c-1.22,1.19-1.23,1.21-2.13,0.18c-1.02-1.17-1.53-2.6-1.87-4.08c-0.82-3.52-0.96-7.1-0.88-10.69 c0.03-1.22,0-2.45-0.15-3.68c-1.97,3.53-2.84,7.32-2.8,11.33c0.01,0.9,0.39,1.89-0.89,2.34c-0.28,0.1-0.29,0.64-0.26,1.07 c0.09,1.28-0.29,1.58-1.27,0.98c-1.33-0.81-2.29-1.93-2.74-3.48c-0.97-3.3-0.73-6.65-0.34-9.97c0.65-5.43,2.55-10.48,4.83-15.42 c1.46-3.16,3.16-6.27,3.73-9.78c0.1-0.63,0.22-1.26,0.26-1.89c0.08-1.12,0.21-2.22-1.16-2.82 C268.18,65.49,267.99,64.84,267.96,64.26z M277.61,110.93c-0.22-0.72-0.48-1.42-0.61-2.16c-0.82-4.9-0.94-9.82-0.81-14.76 c0.04-1.53,0.34-3,0.84-4.44c0.23-0.66,0.61-1.18,1.38-1c0.9,0.22,0.99,0.86,0.76,1.67c-1.07,3.81-0.62,7.71-0.68,11.58 c-0.05,3.03,1.54,4.85,3.9,6.2c1.3,0.74,2.64,1.49,4.19,1.66c0.23,0.03,0.48,0.06,0.69,0.16c0.56,0.25,0.88,0.7,0.8,1.33 c-0.09,0.71-0.64,0.9-1.22,0.86c-1.45-0.09-2.79-0.6-4.1-1.19c-0.11-0.05-0.21-0.1-0.32-0.16c-0.31-0.17-0.61-0.37-0.93-0.53 c-0.42-0.22-0.85-0.4-1.37-0.38c-0.14-0.28-0.24-0.59-0.66-0.75c0.06,1.68,0.96,3.03,1.58,4.47c-0.16,0.36-0.29,0.62-0.42,0.8 c-0.39,0.54-0.78,0.31-2.12-0.63c-0.03-0.35-0.18-0.58-0.57-0.53c0,0-0.05,0-0.05,0C277.99,112.37,277.82,111.64,277.61,110.93z M234.2,62.79c0.23-1.74,0.69-3.43,1.89-4.79c0.45-0.51,1.09-0.77,1.71-0.38c0.74,0.47,0.37,1.06,0.02,1.63 c-0.62,1.02-1.04,2.13-1.37,3.28c-0.19,0.65-0.54,1.15-1.32,1.15C234.58,63.62,234.13,63.3,234.2,62.79z M196.72,133.97 c-0.58-4.94,1.16-9.2,3.96-13.12c0.32-0.45,0.73-0.85,1.37-0.94c0.63,0.1,0.91,0.52,0.88,1.15c-0.02,0.51-0.43,0.83-0.7,1.22 c-1.43,2.03-2.43,4.28-3.08,6.65c-0.58,2.09-0.82,4.2,0.27,6.26c0.29,0.54,0.56,1.32-0.18,1.69c-0.86,0.43-1.57-0.07-1.94-0.87 C197.01,135.38,196.8,134.67,196.72,133.97z M248.28,128.9c-0.35,1.04-1.24,0.73-2.01,0.44c-3.46-1.3-6.68-2.98-9.13-5.86 c-1.72-2.02-2.49-4.41-2.6-7.03c-0.03-0.76,0.12-1.42,0.89-1.6c0.68,0.06,0.98,0.32,1.09,0.88c0.22,1.17,0.41,2.33,0.78,3.48 c0.69,2.13,1.91,3.82,3.77,5.05c1.86,1.23,3.78,2.38,5.91,3.06C247.84,127.6,248.63,127.88,248.28,128.9z M252.52,99.89 c-2.52,0.09-6.02-2.46-6.71-4.81c-0.19-0.65-0.44-1.28,0.3-1.64c0.79-0.38,1.39,0.08,1.75,0.75c0.53,0.99,1.11,1.88,2.16,2.42 c0.85,0.44,1.7,0.8,2.67,0.85c0.62,0.03,1.04,0.34,1.03,0.98C253.77,99.35,253.41,99.86,252.52,99.89z M273.92,119.05 c-0.57,0.84-1.21,0.91-2.19,0.26c-1.2-0.8-2.31-1.69-3.21-2.82c-0.65-0.82-1.15-1.73-1.07-2.83c0.05-0.74,0.44-1.16,1.04-1.18 c0.61,0.06,0.92,0.28,1.04,0.71c0.56,2.01,2.18,3.05,3.76,4.14C273.89,117.74,274.51,118.18,273.92,119.05z M259.38,85.3 c0.12,0.47,0.18,0.95-0.21,1.33c-0.45,0.44-0.86,0.16-1.25-0.13c-1.24-0.94-2.72-1.26-4.18-1.64c-0.38-0.1-0.79-0.1-1.16-0.23 c-0.6-0.21-1.33-0.48-1.18-1.24c0.16-0.82,0.9-1.02,1.68-0.91c1.9,0.32,3.69,0.94,5.41,1.78C258.93,84.47,259.26,84.81,259.38,85.3z M253.67,115.84c-0.84,0.12-1.73-0.73-1.67-1.61c0.05-0.74,0.5-1.16,1.24-1.17c0.17,0,0.34,0.05,0.51,0.14 c0.49,0.27,0.89,0.91,0.9,1.52C254.67,115.39,254.3,115.75,253.67,115.84z" fill="inherit"/></g></svg>